STARTFONT 2.1
COMMENT
COMMENT Converted from OpenType font "MultiTypeGamerChess-Regular.otf" by "otf2bdf 3.0".
COMMENT
FONT -FreeType-MultiType Gamer Chess-Medium-R-Normal--11-80-100-100-P-67-ISO10646-1
SIZE 8 100 100
FONTBOUNDINGBOX 26 19 -8 -3
STARTPROPERTIES 19
FOUNDRY "FreeType"
FAMILY_NAME "MultiType Gamer Chess"
WEIGHT_NAME "Medium"
SLANT "R"
SETWIDTH_NAME "Normal"
ADD_STYLE_NAME ""
PIXEL_SIZE 11
POINT_SIZE 80
RESOLUTION_X 100
RESOLUTION_Y 100
SPACING "P"
AVERAGE_WIDTH 67
CHARSET_REGISTRY "ISO10646"
CHARSET_ENCODING "1"
FONT_ASCENT 12
FONT_DESCENT 1
COPYRIGHT "-FreeType-MultiType Gamer Chess-Medium-R-Normal--11-80-100-100-P-67-ISO10646-1"
_OTF_FONTFILE "MultiTypeGamerChess-Regular.otf"
_OTF_PSNAME "MultiTypeGamer-Chess"
ENDPROPERTIES
CHARS 758
STARTCHAR 0020
ENCODING 32
SWIDTH 270 0
DWIDTH 3 0
BBX 0 0 0 0
BITMAP
ENDCHAR
STARTCHAR 0021
ENCODING 33
SWIDTH 270 0
DWIDTH 3 0
BBX 2 8 1 0
BITMAP
80
80
80
40
40
00
40
40
ENDCHAR
STARTCHAR 0022
ENCODING 34
SWIDTH 450 0
DWIDTH 5 0
BBX 0 0 0 7
BITMAP
ENDCHAR
STARTCHAR 0023
ENCODING 35
SWIDTH 900 0
DWIDTH 10 0
BBX 8 10 1 -1
BITMAP
24
24
7E
7E
42
42
C3
42
42
24
ENDCHAR
STARTCHAR 0024
ENCODING 36
SWIDTH 630 0
DWIDTH 7 0
BBX 6 8 1 0
BITMAP
C0
80
80
78
7C
0C
7C
78
ENDCHAR
STARTCHAR 0025
ENCODING 37
SWIDTH 1260 0
DWIDTH 14 0
BBX 13 8 1 0
BITMAP
C100
8300
8300
7E10
7618
0418
0C18
0C10
ENDCHAR
STARTCHAR 0026
ENCODING 38
SWIDTH 720 0
DWIDTH 8 0
BBX 7 8 1 0
BITMAP
C0
80
C0
7E
7E
4C
7E
7E
ENDCHAR
STARTCHAR 0027
ENCODING 39
SWIDTH 180 0
DWIDTH 2 0
BBX 0 0 0 7
BITMAP
ENDCHAR
STARTCHAR 0028
ENCODING 40
SWIDTH 270 0
DWIDTH 3 0
BBX 3 13 1 -2
BITMAP
60
C0
80
80
80
80
40
40
40
40
40
80
C0
ENDCHAR
STARTCHAR 0029
ENCODING 41
SWIDTH 270 0
DWIDTH 3 0
BBX 3 12 0 -1
BITMAP
C0
40
40
40
40
20
20
20
20
20
40
C0
ENDCHAR
STARTCHAR 002A
ENCODING 42
SWIDTH 900 0
DWIDTH 10 0
BBX 8 7 1 2
BITMAP
81
C3
42
42
7E
5A
5A
ENDCHAR
STARTCHAR 002B
ENCODING 43
SWIDTH 630 0
DWIDTH 7 0
BBX 5 4 2 3
BITMAP
F8
F8
60
60
ENDCHAR
STARTCHAR 002C
ENCODING 44
SWIDTH 180 0
DWIDTH 2 0
BBX 2 2 0 -1
BITMAP
C0
C0
ENDCHAR
STARTCHAR 002D
ENCODING 45
SWIDTH 450 0
DWIDTH 5 0
BBX 3 2 0 3
BITMAP
E0
E0
ENDCHAR
STARTCHAR 002E
ENCODING 46
SWIDTH 180 0
DWIDTH 2 0
BBX 2 2 0 0
BITMAP
C0
C0
ENDCHAR
STARTCHAR 002F
ENCODING 47
SWIDTH 360 0
DWIDTH 4 0
BBX 4 8 0 0
BITMAP
10
30
30
60
60
40
C0
C0
ENDCHAR
STARTCHAR 0030
ENCODING 48
SWIDTH 630 0
DWIDTH 7 0
BBX 6 8 1 0
BITMAP
40
C0
80
4C
4C
4C
78
30
ENDCHAR
STARTCHAR 0031
ENCODING 49
SWIDTH 360 0
DWIDTH 4 0
BBX 3 8 1 0
BITMAP
C0
40
40
60
60
60
60
60
ENDCHAR
STARTCHAR 0032
ENCODING 50
SWIDTH 630 0
DWIDTH 7 0
BBX 6 8 1 0
BITMAP
C0
80
00
18
30
60
7C
7C
ENDCHAR
STARTCHAR 0033
ENCODING 51
SWIDTH 630 0
DWIDTH 7 0
BBX 6 8 1 0
BITMAP
C0
80
00
38
3C
4C
7C
78
ENDCHAR
STARTCHAR 0034
ENCODING 52
SWIDTH 630 0
DWIDTH 7 0
BBX 6 7 1 1
BITMAP
40
C0
58
7C
7C
18
18
ENDCHAR
STARTCHAR 0035
ENCODING 53
SWIDTH 630 0
DWIDTH 7 0
BBX 6 8 1 0
BITMAP
C0
80
80
78
7C
0C
7C
78
ENDCHAR
STARTCHAR 0036
ENCODING 54
SWIDTH 630 0
DWIDTH 7 0
BBX 6 8 1 0
BITMAP
40
C0
80
78
7C
4C
7C
78
ENDCHAR
STARTCHAR 0037
ENCODING 55
SWIDTH 630 0
DWIDTH 7 0
BBX 5 8 1 0
BITMAP
C0
00
00
18
30
60
60
60
ENDCHAR
STARTCHAR 0038
ENCODING 56
SWIDTH 630 0
DWIDTH 7 0
BBX 6 8 1 0
BITMAP
C0
80
C0
78
78
4C
7C
78
ENDCHAR
STARTCHAR 0039
ENCODING 57
SWIDTH 630 0
DWIDTH 7 0
BBX 6 8 1 0
BITMAP
C0
80
80
7C
7C
0C
78
70
ENDCHAR
STARTCHAR 003A
ENCODING 58
SWIDTH 180 0
DWIDTH 2 0
BBX 2 2 0 2
BITMAP
C0
C0
ENDCHAR
STARTCHAR 003B
ENCODING 59
SWIDTH 180 0
DWIDTH 2 0
BBX 2 5 0 -1
BITMAP
C0
C0
00
C0
C0
ENDCHAR
STARTCHAR 003C
ENCODING 60
SWIDTH 630 0
DWIDTH 7 0
BBX 5 7 1 1
BITMAP
40
C0
40
40
60
30
18
ENDCHAR
STARTCHAR 003D
ENCODING 61
SWIDTH 630 0
DWIDTH 7 0
BBX 6 5 1 1
BITMAP
C0
7C
00
7C
7C
ENDCHAR
STARTCHAR 003E
ENCODING 62
SWIDTH 630 0
DWIDTH 7 0
BBX 5 8 1 0
BITMAP
60
30
18
00
00
00
40
C0
ENDCHAR
STARTCHAR 003F
ENCODING 63
SWIDTH 630 0
DWIDTH 7 0
BBX 6 8 1 0
BITMAP
C0
80
00
1C
38
30
30
30
ENDCHAR
STARTCHAR 0040
ENCODING 64
SWIDTH 1170 0
DWIDTH 13 0
BBX 12 12 1 -1
BITMAP
3E00
43C0
C060
8020
8320
8120
5A10
5E10
4E00
4000
7E10
43E0
ENDCHAR
STARTCHAR 0041
ENCODING 65
SWIDTH 630 0
DWIDTH 7 0
BBX 6 8 1 0
BITMAP
40
C0
80
4C
7C
7C
4C
4C
ENDCHAR
STARTCHAR 0042
ENCODING 66
SWIDTH 630 0
DWIDTH 7 0
BBX 6 8 1 0
BITMAP
C0
80
80
78
7C
4C
7C
78
ENDCHAR
STARTCHAR 0043
ENCODING 67
SWIDTH 720 0
DWIDTH 8 0
BBX 7 8 1 0
BITMAP
40
C2
82
46
40
46
7C
38
ENDCHAR
STARTCHAR 0044
ENCODING 68
SWIDTH 720 0
DWIDTH 8 0
BBX 7 8 1 0
BITMAP
C0
82
82
46
46
46
7C
78
ENDCHAR
STARTCHAR 0045
ENCODING 69
SWIDTH 630 0
DWIDTH 7 0
BBX 6 8 1 0
BITMAP
40
C0
80
78
78
40
7C
3C
ENDCHAR
STARTCHAR 0046
ENCODING 70
SWIDTH 630 0
DWIDTH 7 0
BBX 5 8 1 0
BITMAP
40
C0
80
78
78
40
40
40
ENDCHAR
STARTCHAR 0047
ENCODING 71
SWIDTH 720 0
DWIDTH 8 0
BBX 7 8 1 0
BITMAP
42
C0
80
5E
5E
46
7E
3E
ENDCHAR
STARTCHAR 0048
ENCODING 72
SWIDTH 720 0
DWIDTH 8 0
BBX 7 8 1 0
BITMAP
82
82
82
7E
7E
46
46
46
ENDCHAR
STARTCHAR 0049
ENCODING 73
SWIDTH 450 0
DWIDTH 5 0
BBX 4 8 1 0
BITMAP
C0
40
40
60
60
60
70
70
ENDCHAR
STARTCHAR 004A
ENCODING 74
SWIDTH 540 0
DWIDTH 6 0
BBX 5 8 1 0
BITMAP
C0
00
00
18
18
18
70
60
ENDCHAR
STARTCHAR 004B
ENCODING 75
SWIDTH 630 0
DWIDTH 7 0
BBX 6 8 1 0
BITMAP
80
80
80
70
70
58
4C
4C
ENDCHAR
STARTCHAR 004C
ENCODING 76
SWIDTH 630 0
DWIDTH 7 0
BBX 6 8 1 0
BITMAP
80
80
80
40
40
40
7C
7C
ENDCHAR
STARTCHAR 004D
ENCODING 77
SWIDTH 990 0
DWIDTH 11 0
BBX 9 8 1 0
BITMAP
C180
C380
8280
5C00
4800
4000
4000
4000
ENDCHAR
STARTCHAR 004E
ENCODING 78
SWIDTH 720 0
DWIDTH 8 0
BBX 7 8 1 0
BITMAP
C2
C2
82
5E
4E
46
46
46
ENDCHAR
STARTCHAR 004F
ENCODING 79
SWIDTH 720 0
DWIDTH 8 0
BBX 7 8 1 0
BITMAP
40
C2
82
46
46
46
7C
38
ENDCHAR
STARTCHAR 0050
ENCODING 80
SWIDTH 630 0
DWIDTH 7 0
BBX 6 8 1 0
BITMAP
C0
80
80
4C
4C
78
70
40
ENDCHAR
STARTCHAR 0051
ENCODING 81
SWIDTH 720 0
DWIDTH 8 0
BBX 7 8 1 -1
BITMAP
40
C2
82
46
46
46
7C
38
ENDCHAR
STARTCHAR 0052
ENCODING 82
SWIDTH 630 0
DWIDTH 7 0
BBX 6 8 1 0
BITMAP
C0
80
80
4C
4C
78
78
4C
ENDCHAR
STARTCHAR 0053
ENCODING 83
SWIDTH 630 0
DWIDTH 7 0
BBX 6 8 1 0
BITMAP
C0
80
80
78
7C
4C
7C
78
ENDCHAR
STARTCHAR 0054
ENCODING 84
SWIDTH 630 0
DWIDTH 7 0
BBX 4 8 1 0
BITMAP
C0
00
00
30
30
30
30
30
ENDCHAR
STARTCHAR 0055
ENCODING 85
SWIDTH 720 0
DWIDTH 8 0
BBX 7 8 1 0
BITMAP
82
82
82
46
46
46
7C
38
ENDCHAR
STARTCHAR 0056
ENCODING 86
SWIDTH 630 0
DWIDTH 7 0
BBX 6 8 1 0
BITMAP
80
80
80
4C
4C
4C
78
30
ENDCHAR
STARTCHAR 0057
ENCODING 87
SWIDTH 1080 0
DWIDTH 12 0
BBX 10 8 1 0
BITMAP
8040
8040
8040
4C00
4C00
4C00
7E00
3200
ENDCHAR
STARTCHAR 0058
ENCODING 88
SWIDTH 720 0
DWIDTH 8 0
BBX 7 8 1 0
BITMAP
82
82
C2
7C
7C
46
46
46
ENDCHAR
STARTCHAR 0059
ENCODING 89
SWIDTH 630 0
DWIDTH 7 0
BBX 6 8 1 0
BITMAP
80
80
80
4C
78
30
30
30
ENDCHAR
STARTCHAR 005A
ENCODING 90
SWIDTH 630 0
DWIDTH 7 0
BBX 6 8 1 0
BITMAP
C0
00
00
30
60
40
7C
7C
ENDCHAR
STARTCHAR 005B
ENCODING 91
SWIDTH 270 0
DWIDTH 3 0
BBX 3 13 1 -2
BITMAP
60
C0
80
80
80
80
40
40
40
40
40
80
C0
ENDCHAR
STARTCHAR 005C
ENCODING 92
SWIDTH 360 0
DWIDTH 4 0
BBX 2 7 1 1
BITMAP
40
40
C0
C0
40
40
40
ENDCHAR
STARTCHAR 005D
ENCODING 93
SWIDTH 270 0
DWIDTH 3 0
BBX 3 13 0 -2
BITMAP
E0
20
20
20
20
20
60
60
60
60
60
20
20
ENDCHAR
STARTCHAR 005F
ENCODING 95
SWIDTH 720 0
DWIDTH 8 0
BBX 9 2 0 -1
BITMAP
E180
3F00
ENDCHAR
STARTCHAR 0060
ENCODING 96
SWIDTH 270 0
DWIDTH 3 0
BBX 4 3 -1 9
BITMAP
C0
60
10
ENDCHAR
STARTCHAR 0061
ENCODING 97
SWIDTH 630 0
DWIDTH 7 0
BBX 6 8 1 0
BITMAP
C0
80
80
4C
7C
7C
4C
4C
ENDCHAR
STARTCHAR 0062
ENCODING 98
SWIDTH 630 0
DWIDTH 7 0
BBX 6 8 1 0
BITMAP
C0
80
80
78
78
4C
7C
78
ENDCHAR
STARTCHAR 0063
ENCODING 99
SWIDTH 630 0
DWIDTH 7 0
BBX 6 8 1 0
BITMAP
C0
80
80
4C
40
4C
7C
78
ENDCHAR
STARTCHAR 0064
ENCODING 100
SWIDTH 630 0
DWIDTH 7 0
BBX 6 8 1 0
BITMAP
C0
80
80
4C
4C
4C
7C
78
ENDCHAR
STARTCHAR 0065
ENCODING 101
SWIDTH 630 0
DWIDTH 7 0
BBX 6 8 1 0
BITMAP
C0
80
80
78
78
40
7C
7C
ENDCHAR
STARTCHAR 0066
ENCODING 102
SWIDTH 630 0
DWIDTH 7 0
BBX 5 8 1 0
BITMAP
C0
80
80
78
78
40
40
40
ENDCHAR
STARTCHAR 0067
ENCODING 103
SWIDTH 630 0
DWIDTH 7 0
BBX 6 8 1 0
BITMAP
C0
80
80
5C
5C
4C
7C
78
ENDCHAR
STARTCHAR 0068
ENCODING 104
SWIDTH 630 0
DWIDTH 7 0
BBX 6 8 1 0
BITMAP
80
80
80
7C
7C
4C
4C
4C
ENDCHAR
STARTCHAR 0069
ENCODING 105
SWIDTH 270 0
DWIDTH 3 0
BBX 2 8 1 0
BITMAP
80
80
80
40
40
40
40
40
ENDCHAR
STARTCHAR 006A
ENCODING 106
SWIDTH 450 0
DWIDTH 5 0
BBX 3 5 2 3
BITMAP
60
60
60
E0
C0
ENDCHAR
STARTCHAR 006B
ENCODING 107
SWIDTH 630 0
DWIDTH 7 0
BBX 6 8 1 0
BITMAP
80
80
80
78
78
4C
4C
4C
ENDCHAR
STARTCHAR 006C
ENCODING 108
SWIDTH 540 0
DWIDTH 6 0
BBX 5 8 1 0
BITMAP
80
80
80
40
40
40
78
78
ENDCHAR
STARTCHAR 006D
ENCODING 109
SWIDTH 900 0
DWIDTH 10 0
BBX 8 8 1 0
BITMAP
C3
C3
81
5A
42
42
42
42
ENDCHAR
STARTCHAR 006E
ENCODING 110
SWIDTH 630 0
DWIDTH 7 0
BBX 6 8 1 0
BITMAP
C0
C0
80
5C
4C
4C
4C
4C
ENDCHAR
STARTCHAR 006F
ENCODING 111
SWIDTH 630 0
DWIDTH 7 0
BBX 6 8 1 0
BITMAP
C0
80
80
4C
4C
4C
7C
78
ENDCHAR
STARTCHAR 0070
ENCODING 112
SWIDTH 630 0
DWIDTH 7 0
BBX 6 8 1 0
BITMAP
C0
80
80
4C
7C
78
40
40
ENDCHAR
STARTCHAR 0071
ENCODING 113
SWIDTH 630 0
DWIDTH 7 0
BBX 6 8 1 -1
BITMAP
C0
80
80
4C
4C
4C
7C
78
ENDCHAR
STARTCHAR 0072
ENCODING 114
SWIDTH 630 0
DWIDTH 7 0
BBX 6 8 1 0
BITMAP
C0
80
80
4C
7C
78
4C
4C
ENDCHAR
STARTCHAR 0073
ENCODING 115
SWIDTH 630 0
DWIDTH 7 0
BBX 6 8 1 0
BITMAP
C0
80
80
78
7C
4C
7C
78
ENDCHAR
STARTCHAR 0074
ENCODING 116
SWIDTH 630 0
DWIDTH 7 0
BBX 4 8 1 0
BITMAP
C0
00
00
30
30
30
30
30
ENDCHAR
STARTCHAR 0075
ENCODING 117
SWIDTH 630 0
DWIDTH 7 0
BBX 6 8 1 0
BITMAP
80
80
80
4C
4C
4C
7C
78
ENDCHAR
STARTCHAR 0076
ENCODING 118
SWIDTH 630 0
DWIDTH 7 0
BBX 6 8 1 0
BITMAP
80
80
80
4C
4C
4C
78
30
ENDCHAR
STARTCHAR 0077
ENCODING 119
SWIDTH 1080 0
DWIDTH 12 0
BBX 10 8 1 0
BITMAP
8040
8040
8040
4C00
4C00
4C00
7E00
7200
ENDCHAR
STARTCHAR 0078
ENCODING 120
SWIDTH 630 0
DWIDTH 7 0
BBX 6 8 1 0
BITMAP
80
80
C0
78
78
4C
4C
4C
ENDCHAR
STARTCHAR 0079
ENCODING 121
SWIDTH 630 0
DWIDTH 7 0
BBX 6 8 1 0
BITMAP
80
80
80
4C
7C
78
30
30
ENDCHAR
STARTCHAR 007A
ENCODING 122
SWIDTH 630 0
DWIDTH 7 0
BBX 6 8 1 0
BITMAP
C0
00
00
7C
78
40
7C
7C
ENDCHAR
STARTCHAR 007B
ENCODING 123
SWIDTH 360 0
DWIDTH 4 0
BBX 4 13 1 -2
BITMAP
30
40
40
40
40
C0
40
40
60
60
60
40
40
ENDCHAR
STARTCHAR 007C
ENCODING 124
SWIDTH 270 0
DWIDTH 3 0
BBX 2 10 1 -1
BITMAP
80
80
80
80
40
40
40
40
40
80
ENDCHAR
STARTCHAR 007D
ENCODING 125
SWIDTH 360 0
DWIDTH 4 0
BBX 4 12 0 -1
BITMAP
C0
40
40
40
60
30
30
20
20
20
40
C0
ENDCHAR
STARTCHAR 00A1
ENCODING 161
SWIDTH 270 0
DWIDTH 3 0
BBX 2 8 1 0
BITMAP
80
00
80
40
40
40
40
40
ENDCHAR
STARTCHAR 00A2
ENCODING 162
SWIDTH 630 0
DWIDTH 7 0
BBX 6 8 1 0
BITMAP
C0
80
80
4C
40
4C
7C
78
ENDCHAR
STARTCHAR 00A3
ENCODING 163
SWIDTH 630 0
DWIDTH 7 0
BBX 5 9 2 0
BITMAP
80
80
80
80
F0
F0
C0
F8
F8
ENDCHAR
STARTCHAR 00A4
ENCODING 164
SWIDTH 720 0
DWIDTH 8 0
BBX 6 7 2 2
BITMAP
80
84
80
80
F8
F8
18
ENDCHAR
STARTCHAR 00A5
ENCODING 165
SWIDTH 630 0
DWIDTH 7 0
BBX 6 11 1 -1
BITMAP
4C
80
80
C0
40
00
7C
7C
30
7C
7C
ENDCHAR
STARTCHAR 00A6
ENCODING 166
SWIDTH 270 0
DWIDTH 3 0
BBX 2 10 1 -1
BITMAP
80
80
80
00
00
00
40
40
40
80
ENDCHAR
STARTCHAR 00A7
ENCODING 167
SWIDTH 630 0
DWIDTH 7 0
BBX 6 13 1 -2
BITMAP
3C
40
C0
80
C0
80
4C
4C
7C
3C
0C
00
C0
ENDCHAR
STARTCHAR 00A8
ENCODING 168
SWIDTH 360 0
DWIDTH 4 0
BBX 4 2 0 9
BITMAP
E0
10
ENDCHAR
STARTCHAR 00AB
ENCODING 171
SWIDTH 810 0
DWIDTH 9 0
BBX 7 6 1 1
BITMAP
42
C0
58
58
6C
36
ENDCHAR
STARTCHAR 00AD
ENCODING 173
SWIDTH 450 0
DWIDTH 5 0
BBX 3 2 0 3
BITMAP
E0
E0
ENDCHAR
STARTCHAR 00AF
ENCODING 175
SWIDTH 360 0
DWIDTH 4 0
BBX 4 2 0 9
BITMAP
E0
30
ENDCHAR
STARTCHAR 00B0
ENCODING 176
SWIDTH 450 0
DWIDTH 5 0
BBX 4 5 1 4
BITMAP
70
10
10
70
C0
ENDCHAR
STARTCHAR 00B4
ENCODING 180
SWIDTH 270 0
DWIDTH 3 0
BBX 2 3 1 9
BITMAP
40
C0
40
ENDCHAR
STARTCHAR 00B6
ENCODING 182
SWIDTH 630 0
DWIDTH 7 0
BBX 6 8 1 0
BITMAP
C0
C0
C0
7C
7C
3C
3C
3C
ENDCHAR
STARTCHAR 00B7
ENCODING 183
SWIDTH 180 0
DWIDTH 2 0
BBX 2 2 0 3
BITMAP
C0
C0
ENDCHAR
STARTCHAR 00B8
ENCODING 184
SWIDTH 180 0
DWIDTH 2 0
BBX 2 2 0 -2
BITMAP
40
C0
ENDCHAR
STARTCHAR 00BB
ENCODING 187
SWIDTH 810 0
DWIDTH 9 0
BBX 8 6 1 1
BITMAP
6C
36
03
03
42
C0
ENDCHAR
STARTCHAR 00BF
ENCODING 191
SWIDTH 630 0
DWIDTH 7 0
BBX 5 5 2 3
BITMAP
E0
C0
98
F8
F0
ENDCHAR
STARTCHAR 00C0
ENCODING 192
SWIDTH 630 0
DWIDTH 7 0
BBX 6 12 1 0
BITMAP
40
60
40
00
40
C0
80
4C
7C
7C
4C
4C
ENDCHAR
STARTCHAR 00C1
ENCODING 193
SWIDTH 630 0
DWIDTH 7 0
BBX 6 10 1 2
BITMAP
30
00
40
C0
80
4C
7C
7C
4C
4C
ENDCHAR
STARTCHAR 00C2
ENCODING 194
SWIDTH 630 0
DWIDTH 7 0
BBX 6 12 1 0
BITMAP
30
78
40
00
40
C0
80
4C
7C
7C
4C
4C
ENDCHAR
STARTCHAR 00C3
ENCODING 195
SWIDTH 630 0
DWIDTH 7 0
BBX 6 12 1 0
BITMAP
6C
7C
80
00
40
C0
80
4C
7C
7C
4C
4C
ENDCHAR
STARTCHAR 00C4
ENCODING 196
SWIDTH 630 0
DWIDTH 7 0
BBX 6 11 1 0
BITMAP
78
40
00
40
C0
80
4C
7C
7C
4C
4C
ENDCHAR
STARTCHAR 00C5
ENCODING 197
SWIDTH 630 0
DWIDTH 7 0
BBX 6 14 1 0
BITMAP
40
C0
C0
C0
78
00
40
C0
80
4C
7C
7C
4C
4C
ENDCHAR
STARTCHAR 00C6
ENCODING 198
SWIDTH 1080 0
DWIDTH 12 0
BBX 10 8 1 0
BITMAP
43C0
C000
8000
4E00
7E00
7C00
4E00
4600
ENDCHAR
STARTCHAR 00C7
ENCODING 199
SWIDTH 720 0
DWIDTH 8 0
BBX 7 8 1 -2
BITMAP
40
C2
82
46
40
46
7C
38
ENDCHAR
STARTCHAR 00C8
ENCODING 200
SWIDTH 630 0
DWIDTH 7 0
BBX 6 12 1 0
BITMAP
40
60
40
00
40
C0
80
78
78
40
7C
3C
ENDCHAR
STARTCHAR 00C9
ENCODING 201
SWIDTH 630 0
DWIDTH 7 0
BBX 6 10 1 2
BITMAP
30
00
40
C0
80
78
78
40
7C
3C
ENDCHAR
STARTCHAR 00CA
ENCODING 202
SWIDTH 630 0
DWIDTH 7 0
BBX 6 12 1 0
BITMAP
30
78
40
00
40
C0
80
78
78
40
7C
3C
ENDCHAR
STARTCHAR 00CB
ENCODING 203
SWIDTH 630 0
DWIDTH 7 0
BBX 6 11 1 0
BITMAP
78
40
00
40
C0
80
78
78
40
7C
3C
ENDCHAR
STARTCHAR 00CC
ENCODING 204
SWIDTH 450 0
DWIDTH 5 0
BBX 4 11 1 1
BITMAP
40
C0
00
C0
40
40
60
60
60
70
70
ENDCHAR
STARTCHAR 00CD
ENCODING 205
SWIDTH 450 0
DWIDTH 5 0
BBX 4 11 1 1
BITMAP
40
60
00
C0
40
40
60
60
60
70
70
ENDCHAR
STARTCHAR 00CE
ENCODING 206
SWIDTH 450 0
DWIDTH 5 0
BBX 4 12 1 0
BITMAP
60
70
80
00
C0
40
40
60
60
60
70
70
ENDCHAR
STARTCHAR 00CF
ENCODING 207
SWIDTH 450 0
DWIDTH 5 0
BBX 4 11 1 0
BITMAP
70
80
00
C0
40
40
60
60
60
70
70
ENDCHAR
STARTCHAR 00D0
ENCODING 208
SWIDTH 810 0
DWIDTH 9 0
BBX 9 8 0 0
BITMAP
3E00
2300
2100
E180
E180
6180
6100
6000
ENDCHAR
STARTCHAR 00D1
ENCODING 209
SWIDTH 720 0
DWIDTH 8 0
BBX 7 12 1 0
BITMAP
42
C2
5C
00
C2
C2
82
5E
4E
46
46
46
ENDCHAR
STARTCHAR 00D2
ENCODING 210
SWIDTH 720 0
DWIDTH 8 0
BBX 7 12 1 0
BITMAP
C0
40
30
00
40
C2
82
46
46
46
7C
38
ENDCHAR
STARTCHAR 00D3
ENCODING 211
SWIDTH 720 0
DWIDTH 8 0
BBX 7 12 1 0
BITMAP
0C
18
00
00
40
C2
82
46
46
46
7C
38
ENDCHAR
STARTCHAR 00D4
ENCODING 212
SWIDTH 720 0
DWIDTH 8 0
BBX 7 11 1 1
BITMAP
40
28
00
40
C2
82
46
46
46
7C
38
ENDCHAR
STARTCHAR 00D5
ENCODING 213
SWIDTH 720 0
DWIDTH 8 0
BBX 7 12 1 0
BITMAP
42
C2
5C
00
40
C2
82
46
46
46
7C
38
ENDCHAR
STARTCHAR 00D6
ENCODING 214
SWIDTH 720 0
DWIDTH 8 0
BBX 7 11 1 0
BITMAP
40
28
00
40
C2
82
46
46
46
7C
38
ENDCHAR
STARTCHAR 00D7
ENCODING 215
SWIDTH 630 0
DWIDTH 7 0
BBX 6 7 1 1
BITMAP
80
C0
40
30
78
4C
4C
ENDCHAR
STARTCHAR 00D8
ENCODING 216
SWIDTH 900 0
DWIDTH 10 0
BBX 10 7 0 0
BITMAP
1E00
3300
2100
E1C0
E1C0
6180
2100
ENDCHAR
STARTCHAR 00D9
ENCODING 217
SWIDTH 720 0
DWIDTH 8 0
BBX 7 12 1 0
BITMAP
C0
40
30
00
82
82
82
46
46
46
7C
38
ENDCHAR
STARTCHAR 00DA
ENCODING 218
SWIDTH 720 0
DWIDTH 8 0
BBX 7 12 1 0
BITMAP
0C
18
00
00
82
82
82
46
46
46
7C
38
ENDCHAR
STARTCHAR 00DB
ENCODING 219
SWIDTH 720 0
DWIDTH 8 0
BBX 7 11 1 1
BITMAP
40
28
00
82
82
82
46
46
46
7C
38
ENDCHAR
STARTCHAR 00DC
ENCODING 220
SWIDTH 720 0
DWIDTH 8 0
BBX 7 11 1 0
BITMAP
40
28
00
82
82
82
46
46
46
7C
38
ENDCHAR
STARTCHAR 00DD
ENCODING 221
SWIDTH 630 0
DWIDTH 7 0
BBX 6 10 1 2
BITMAP
30
00
80
80
80
4C
78
30
30
30
ENDCHAR
STARTCHAR 00DE
ENCODING 222
SWIDTH 630 0
DWIDTH 7 0
BBX 6 8 1 0
BITMAP
80
C0
80
4C
4C
7C
78
40
ENDCHAR
STARTCHAR 00DF
ENCODING 223
SWIDTH 630 0
DWIDTH 7 0
BBX 6 8 1 0
BITMAP
C0
80
80
78
7C
4C
7C
78
ENDCHAR
STARTCHAR 00E0
ENCODING 224
SWIDTH 630 0
DWIDTH 7 0
BBX 6 12 1 0
BITMAP
40
60
40
00
C0
80
80
4C
7C
7C
4C
4C
ENDCHAR
STARTCHAR 00E1
ENCODING 225
SWIDTH 630 0
DWIDTH 7 0
BBX 6 10 1 2
BITMAP
30
00
C0
80
80
4C
7C
7C
4C
4C
ENDCHAR
STARTCHAR 00E2
ENCODING 226
SWIDTH 630 0
DWIDTH 7 0
BBX 6 12 1 0
BITMAP
30
78
40
00
C0
80
80
4C
7C
7C
4C
4C
ENDCHAR
STARTCHAR 00E3
ENCODING 227
SWIDTH 630 0
DWIDTH 7 0
BBX 6 12 1 0
BITMAP
6C
7C
80
00
C0
80
80
4C
7C
7C
4C
4C
ENDCHAR
STARTCHAR 00E4
ENCODING 228
SWIDTH 630 0
DWIDTH 7 0
BBX 6 11 1 0
BITMAP
78
40
00
C0
80
80
4C
7C
7C
4C
4C
ENDCHAR
STARTCHAR 00E5
ENCODING 229
SWIDTH 630 0
DWIDTH 7 0
BBX 6 14 1 0
BITMAP
40
C0
C0
C0
78
00
C0
80
80
4C
7C
7C
4C
4C
ENDCHAR
STARTCHAR 00E6
ENCODING 230
SWIDTH 1080 0
DWIDTH 12 0
BBX 10 8 1 0
BITMAP
C3C0
8000
8000
4E00
7E00
7C00
4E00
4600
ENDCHAR
STARTCHAR 00E7
ENCODING 231
SWIDTH 630 0
DWIDTH 7 0
BBX 6 10 1 -2
BITMAP
C0
80
80
4C
40
4C
7C
78
00
40
ENDCHAR
STARTCHAR 00E8
ENCODING 232
SWIDTH 630 0
DWIDTH 7 0
BBX 6 12 1 0
BITMAP
40
60
40
00
C0
80
80
78
78
40
7C
7C
ENDCHAR
STARTCHAR 00E9
ENCODING 233
SWIDTH 630 0
DWIDTH 7 0
BBX 6 10 1 2
BITMAP
30
00
C0
80
80
78
78
40
7C
7C
ENDCHAR
STARTCHAR 00EA
ENCODING 234
SWIDTH 630 0
DWIDTH 7 0
BBX 6 12 1 0
BITMAP
30
78
40
00
C0
80
80
78
78
40
7C
7C
ENDCHAR
STARTCHAR 00EB
ENCODING 235
SWIDTH 630 0
DWIDTH 7 0
BBX 6 11 1 0
BITMAP
78
40
00
C0
80
80
78
78
40
7C
7C
ENDCHAR
STARTCHAR 00EC
ENCODING 236
SWIDTH 270 0
DWIDTH 3 0
BBX 3 10 0 2
BITMAP
C0
00
40
40
40
20
20
20
20
20
ENDCHAR
STARTCHAR 00ED
ENCODING 237
SWIDTH 270 0
DWIDTH 3 0
BBX 2 12 1 0
BITMAP
40
C0
40
00
80
80
80
40
40
40
40
40
ENDCHAR
STARTCHAR 00EE
ENCODING 238
SWIDTH 270 0
DWIDTH 3 0
BBX 4 12 0 0
BITMAP
20
30
A0
00
40
40
40
20
20
20
20
20
ENDCHAR
STARTCHAR 00EF
ENCODING 239
SWIDTH 270 0
DWIDTH 3 0
BBX 4 11 0 0
BITMAP
30
A0
00
40
40
40
20
20
20
20
20
ENDCHAR
STARTCHAR 00F0
ENCODING 240
SWIDTH 720 0
DWIDTH 8 0
BBX 8 8 0 0
BITMAP
3E
22
22
E1
E1
61
61
60
ENDCHAR
STARTCHAR 00F1
ENCODING 241
SWIDTH 630 0
DWIDTH 7 0
BBX 6 12 1 0
BITMAP
6C
7C
80
00
C0
C0
80
5C
4C
4C
4C
4C
ENDCHAR
STARTCHAR 00F2
ENCODING 242
SWIDTH 630 0
DWIDTH 7 0
BBX 6 12 1 0
BITMAP
40
60
40
00
C0
80
80
4C
4C
4C
7C
78
ENDCHAR
STARTCHAR 00F3
ENCODING 243
SWIDTH 630 0
DWIDTH 7 0
BBX 6 10 1 2
BITMAP
30
00
C0
80
80
4C
4C
4C
7C
78
ENDCHAR
STARTCHAR 00F4
ENCODING 244
SWIDTH 630 0
DWIDTH 7 0
BBX 6 12 1 0
BITMAP
30
78
40
00
C0
80
80
4C
4C
4C
7C
78
ENDCHAR
STARTCHAR 00F5
ENCODING 245
SWIDTH 630 0
DWIDTH 7 0
BBX 6 12 1 0
BITMAP
6C
7C
80
00
C0
80
80
4C
4C
4C
7C
78
ENDCHAR
STARTCHAR 00F6
ENCODING 246
SWIDTH 630 0
DWIDTH 7 0
BBX 6 11 1 0
BITMAP
78
40
00
C0
80
80
4C
4C
4C
7C
78
ENDCHAR
STARTCHAR 00F7
ENCODING 247
SWIDTH 630 0
DWIDTH 7 0
BBX 5 4 2 3
BITMAP
F8
F8
60
60
ENDCHAR
STARTCHAR 00F8
ENCODING 248
SWIDTH 720 0
DWIDTH 8 0
BBX 9 8 0 0
BITMAP
3E00
2200
2200
E180
E180
6100
6100
2000
ENDCHAR
STARTCHAR 00F9
ENCODING 249
SWIDTH 630 0
DWIDTH 7 0
BBX 6 12 1 0
BITMAP
40
60
40
00
80
80
80
4C
4C
4C
7C
78
ENDCHAR
STARTCHAR 00FA
ENCODING 250
SWIDTH 630 0
DWIDTH 7 0
BBX 6 10 1 2
BITMAP
30
00
80
80
80
4C
4C
4C
7C
78
ENDCHAR
STARTCHAR 00FB
ENCODING 251
SWIDTH 630 0
DWIDTH 7 0
BBX 6 12 1 0
BITMAP
30
78
40
00
80
80
80
4C
4C
4C
7C
78
ENDCHAR
STARTCHAR 00FC
ENCODING 252
SWIDTH 630 0
DWIDTH 7 0
BBX 6 11 1 0
BITMAP
78
40
00
80
80
80
4C
4C
4C
7C
78
ENDCHAR
STARTCHAR 00FD
ENCODING 253
SWIDTH 630 0
DWIDTH 7 0
BBX 6 10 1 2
BITMAP
30
00
80
80
80
4C
7C
78
30
30
ENDCHAR
STARTCHAR 00FE
ENCODING 254
SWIDTH 630 0
DWIDTH 7 0
BBX 6 8 1 0
BITMAP
80
C0
80
4C
4C
7C
78
40
ENDCHAR
STARTCHAR 00FF
ENCODING 255
SWIDTH 630 0
DWIDTH 7 0
BBX 6 11 1 0
BITMAP
78
40
00
80
80
80
4C
7C
78
30
30
ENDCHAR
STARTCHAR 0100
ENCODING 256
SWIDTH 630 0
DWIDTH 7 0
BBX 6 11 1 0
BITMAP
78
40
00
40
C0
80
4C
7C
7C
4C
4C
ENDCHAR
STARTCHAR 0101
ENCODING 257
SWIDTH 630 0
DWIDTH 7 0
BBX 6 11 1 0
BITMAP
78
40
00
C0
80
80
4C
7C
7C
4C
4C
ENDCHAR
STARTCHAR 0102
ENCODING 258
SWIDTH 630 0
DWIDTH 7 0
BBX 6 12 1 0
BITMAP
C0
C0
78
00
40
C0
80
4C
7C
7C
4C
4C
ENDCHAR
STARTCHAR 0103
ENCODING 259
SWIDTH 630 0
DWIDTH 7 0
BBX 6 12 1 0
BITMAP
C0
C0
78
00
C0
80
80
4C
7C
7C
4C
4C
ENDCHAR
STARTCHAR 0104
ENCODING 260
SWIDTH 630 0
DWIDTH 7 0
BBX 7 10 1 -2
BITMAP
40
C0
80
4C
7C
7C
4C
4C
00
02
ENDCHAR
STARTCHAR 0105
ENCODING 261
SWIDTH 630 0
DWIDTH 7 0
BBX 7 10 1 -2
BITMAP
C0
80
80
4C
7C
7C
4C
4C
00
02
ENDCHAR
STARTCHAR 0106
ENCODING 262
SWIDTH 720 0
DWIDTH 8 0
BBX 7 12 1 0
BITMAP
0C
18
00
00
40
C2
82
46
40
46
7C
38
ENDCHAR
STARTCHAR 0107
ENCODING 263
SWIDTH 630 0
DWIDTH 7 0
BBX 6 10 1 2
BITMAP
30
00
C0
80
80
4C
40
4C
7C
78
ENDCHAR
STARTCHAR 010A
ENCODING 266
SWIDTH 720 0
DWIDTH 8 0
BBX 7 10 1 1
BITMAP
10
00
40
C2
82
46
40
46
7C
38
ENDCHAR
STARTCHAR 010B
ENCODING 267
SWIDTH 630 0
DWIDTH 7 0
BBX 6 11 1 0
BITMAP
30
00
00
C0
80
80
4C
40
4C
7C
78
ENDCHAR
STARTCHAR 010C
ENCODING 268
SWIDTH 720 0
DWIDTH 8 0
BBX 7 12 1 0
BITMAP
40
40
38
00
40
C2
82
46
40
46
7C
38
ENDCHAR
STARTCHAR 010D
ENCODING 269
SWIDTH 630 0
DWIDTH 7 0
BBX 6 12 1 0
BITMAP
78
78
40
00
C0
80
80
4C
40
4C
7C
78
ENDCHAR
STARTCHAR 010E
ENCODING 270
SWIDTH 720 0
DWIDTH 8 0
BBX 7 12 1 0
BITMAP
40
40
38
00
C0
82
82
46
46
46
7C
78
ENDCHAR
STARTCHAR 010F
ENCODING 271
SWIDTH 630 0
DWIDTH 7 0
BBX 6 12 1 0
BITMAP
78
78
40
00
C0
80
80
4C
4C
4C
7C
78
ENDCHAR
STARTCHAR 0110
ENCODING 272
SWIDTH 810 0
DWIDTH 9 0
BBX 9 8 0 0
BITMAP
3E00
2300
2100
E180
E180
6180
6100
6000
ENDCHAR
STARTCHAR 0111
ENCODING 273
SWIDTH 720 0
DWIDTH 8 0
BBX 8 8 0 0
BITMAP
3E
22
22
E1
E1
61
61
60
ENDCHAR
STARTCHAR 0112
ENCODING 274
SWIDTH 630 0
DWIDTH 7 0
BBX 6 11 1 0
BITMAP
78
40
00
40
C0
80
78
78
40
7C
3C
ENDCHAR
STARTCHAR 0113
ENCODING 275
SWIDTH 630 0
DWIDTH 7 0
BBX 6 11 1 0
BITMAP
78
40
00
C0
80
80
78
78
40
7C
7C
ENDCHAR
STARTCHAR 0116
ENCODING 278
SWIDTH 630 0
DWIDTH 7 0
BBX 6 11 1 0
BITMAP
30
00
00
40
C0
80
78
78
40
7C
3C
ENDCHAR
STARTCHAR 0117
ENCODING 279
SWIDTH 630 0
DWIDTH 7 0
BBX 6 11 1 0
BITMAP
30
00
00
C0
80
80
78
78
40
7C
7C
ENDCHAR
STARTCHAR 0118
ENCODING 280
SWIDTH 630 0
DWIDTH 7 0
BBX 7 10 1 -2
BITMAP
40
C0
80
78
78
40
7C
3C
00
02
ENDCHAR
STARTCHAR 0119
ENCODING 281
SWIDTH 630 0
DWIDTH 7 0
BBX 7 10 1 -2
BITMAP
C0
80
80
78
78
40
7C
7C
00
02
ENDCHAR
STARTCHAR 011A
ENCODING 282
SWIDTH 630 0
DWIDTH 7 0
BBX 6 12 1 0
BITMAP
78
78
40
00
40
C0
80
78
78
40
7C
3C
ENDCHAR
STARTCHAR 011B
ENCODING 283
SWIDTH 630 0
DWIDTH 7 0
BBX 6 12 1 0
BITMAP
78
78
40
00
C0
80
80
78
78
40
7C
7C
ENDCHAR
STARTCHAR 011E
ENCODING 286
SWIDTH 720 0
DWIDTH 8 0
BBX 7 12 1 0
BITMAP
6C
7C
40
00
42
C0
80
5E
5E
46
7E
3E
ENDCHAR
STARTCHAR 011F
ENCODING 287
SWIDTH 630 0
DWIDTH 7 0
BBX 6 12 1 0
BITMAP
C0
C0
78
00
C0
80
80
5C
5C
4C
7C
78
ENDCHAR
STARTCHAR 0120
ENCODING 288
SWIDTH 720 0
DWIDTH 8 0
BBX 7 10 1 1
BITMAP
10
00
42
C0
80
5E
5E
46
7E
3E
ENDCHAR
STARTCHAR 0121
ENCODING 289
SWIDTH 630 0
DWIDTH 7 0
BBX 6 11 1 0
BITMAP
30
00
00
C0
80
80
5C
5C
4C
7C
78
ENDCHAR
STARTCHAR 0122
ENCODING 290
SWIDTH 720 0
DWIDTH 8 0
BBX 7 11 1 -3
BITMAP
42
C0
80
5E
5E
46
7E
3E
00
10
10
ENDCHAR
STARTCHAR 0123
ENCODING 291
SWIDTH 630 0
DWIDTH 7 0
BBX 6 8 1 -3
BITMAP
C0
80
80
5C
5C
4C
7C
78
ENDCHAR
STARTCHAR 0126
ENCODING 294
SWIDTH 900 0
DWIDTH 10 0
BBX 8 8 1 0
BITMAP
42
7E
42
C3
C3
C3
C3
C3
ENDCHAR
STARTCHAR 0127
ENCODING 295
SWIDTH 720 0
DWIDTH 8 0
BBX 7 8 1 0
BITMAP
44
7E
44
C2
C2
C2
C2
C2
ENDCHAR
STARTCHAR 0128
ENCODING 296
SWIDTH 450 0
DWIDTH 5 0
BBX 6 12 0 0
BITMAP
2C
3C
A0
00
60
20
20
30
30
30
38
38
ENDCHAR
STARTCHAR 0129
ENCODING 297
SWIDTH 270 0
DWIDTH 3 0
BBX 6 12 -1 0
BITMAP
0C
1C
B0
00
20
20
20
10
10
10
10
10
ENDCHAR
STARTCHAR 012A
ENCODING 298
SWIDTH 450 0
DWIDTH 5 0
BBX 4 11 1 0
BITMAP
70
C0
00
C0
40
40
60
60
60
70
70
ENDCHAR
STARTCHAR 012B
ENCODING 299
SWIDTH 270 0
DWIDTH 3 0
BBX 4 11 0 0
BITMAP
30
E0
00
40
40
40
20
20
20
20
20
ENDCHAR
STARTCHAR 012E
ENCODING 302
SWIDTH 450 0
DWIDTH 5 0
BBX 4 8 1 -2
BITMAP
C0
40
40
60
60
60
70
70
ENDCHAR
STARTCHAR 012F
ENCODING 303
SWIDTH 270 0
DWIDTH 3 0
BBX 2 10 1 -2
BITMAP
80
80
80
40
40
40
40
40
80
C0
ENDCHAR
STARTCHAR 0130
ENCODING 304
SWIDTH 450 0
DWIDTH 5 0
BBX 4 11 1 0
BITMAP
60
40
00
C0
40
40
60
60
60
70
70
ENDCHAR
STARTCHAR 0131
ENCODING 305
SWIDTH 270 0
DWIDTH 3 0
BBX 2 8 1 0
BITMAP
80
80
80
40
40
40
40
40
ENDCHAR
STARTCHAR 0136
ENCODING 310
SWIDTH 630 0
DWIDTH 7 0
BBX 6 8 1 -3
BITMAP
80
80
80
70
70
58
4C
4C
ENDCHAR
STARTCHAR 0137
ENCODING 311
SWIDTH 630 0
DWIDTH 7 0
BBX 6 8 1 -3
BITMAP
80
80
80
78
78
4C
4C
4C
ENDCHAR
STARTCHAR 0139
ENCODING 313
SWIDTH 630 0
DWIDTH 7 0
BBX 6 12 1 0
BITMAP
40
C0
40
00
80
80
80
40
40
40
7C
7C
ENDCHAR
STARTCHAR 013A
ENCODING 314
SWIDTH 540 0
DWIDTH 6 0
BBX 5 12 1 0
BITMAP
40
C0
40
00
80
80
80
40
40
40
78
78
ENDCHAR
STARTCHAR 013B
ENCODING 315
SWIDTH 630 0
DWIDTH 7 0
BBX 6 8 1 -3
BITMAP
80
80
80
40
40
40
7C
7C
ENDCHAR
STARTCHAR 013C
ENCODING 316
SWIDTH 540 0
DWIDTH 6 0
BBX 5 11 1 -3
BITMAP
80
80
80
40
40
40
78
78
00
20
20
ENDCHAR
STARTCHAR 013D
ENCODING 317
SWIDTH 630 0
DWIDTH 7 0
BBX 6 8 1 0
BITMAP
80
80
80
40
40
40
7C
7C
ENDCHAR
STARTCHAR 013E
ENCODING 318
SWIDTH 540 0
DWIDTH 6 0
BBX 5 8 1 0
BITMAP
80
80
80
40
40
40
78
78
ENDCHAR
STARTCHAR 0141
ENCODING 321
SWIDTH 720 0
DWIDTH 8 0
BBX 8 8 0 0
BITMAP
20
20
30
E0
E0
60
61
21
ENDCHAR
STARTCHAR 0142
ENCODING 322
SWIDTH 630 0
DWIDTH 7 0
BBX 4 8 0 0
BITMAP
20
20
30
E0
E0
60
60
20
ENDCHAR
STARTCHAR 0143
ENCODING 323
SWIDTH 720 0
DWIDTH 8 0
BBX 7 12 1 0
BITMAP
0C
18
00
00
C2
C2
82
5E
4E
46
46
46
ENDCHAR
STARTCHAR 0144
ENCODING 324
SWIDTH 630 0
DWIDTH 7 0
BBX 6 10 1 2
BITMAP
30
00
C0
C0
80
5C
4C
4C
4C
4C
ENDCHAR
STARTCHAR 0145
ENCODING 325
SWIDTH 720 0
DWIDTH 8 0
BBX 7 11 1 -3
BITMAP
C2
C2
82
5E
4E
46
46
46
00
10
10
ENDCHAR
STARTCHAR 0146
ENCODING 326
SWIDTH 630 0
DWIDTH 7 0
BBX 6 8 1 -3
BITMAP
C0
C0
80
5C
4C
4C
4C
4C
ENDCHAR
STARTCHAR 0147
ENCODING 327
SWIDTH 720 0
DWIDTH 8 0
BBX 7 12 1 0
BITMAP
40
40
38
00
C2
C2
82
5E
4E
46
46
46
ENDCHAR
STARTCHAR 0148
ENCODING 328
SWIDTH 630 0
DWIDTH 7 0
BBX 6 12 1 0
BITMAP
78
78
40
00
C0
C0
80
5C
4C
4C
4C
4C
ENDCHAR
STARTCHAR 014A
ENCODING 330
SWIDTH 720 0
DWIDTH 8 0
BBX 7 10 1 -2
BITMAP
C2
C2
82
5E
4E
46
46
46
02
02
ENDCHAR
STARTCHAR 014B
ENCODING 331
SWIDTH 630 0
DWIDTH 7 0
BBX 6 8 1 -2
BITMAP
C0
C0
80
5C
4C
4C
4C
4C
ENDCHAR
STARTCHAR 014C
ENCODING 332
SWIDTH 720 0
DWIDTH 8 0
BBX 7 11 1 0
BITMAP
40
38
00
40
C2
82
46
46
46
7C
38
ENDCHAR
STARTCHAR 014D
ENCODING 333
SWIDTH 630 0
DWIDTH 7 0
BBX 6 11 1 0
BITMAP
78
40
00
C0
80
80
4C
4C
4C
7C
78
ENDCHAR
STARTCHAR 0150
ENCODING 336
SWIDTH 720 0
DWIDTH 8 0
BBX 8 12 1 0
BITMAP
03
42
6C
00
40
C2
82
46
46
46
7C
38
ENDCHAR
STARTCHAR 0151
ENCODING 337
SWIDTH 630 0
DWIDTH 7 0
BBX 7 12 1 0
BITMAP
36
6C
C0
00
C0
80
80
4C
4C
4C
7C
78
ENDCHAR
STARTCHAR 0152
ENCODING 338
SWIDTH 1170 0
DWIDTH 13 0
BBX 12 8 1 0
BITMAP
41E0
C300
8200
4600
4600
4600
7E10
3810
ENDCHAR
STARTCHAR 0153
ENCODING 339
SWIDTH 1080 0
DWIDTH 12 0
BBX 10 8 1 0
BITMAP
C3C0
8000
8000
4E00
4E00
4C00
7E00
7E00
ENDCHAR
STARTCHAR 0154
ENCODING 340
SWIDTH 630 0
DWIDTH 7 0
BBX 6 10 1 2
BITMAP
30
00
C0
80
80
4C
4C
78
78
4C
ENDCHAR
STARTCHAR 0155
ENCODING 341
SWIDTH 630 0
DWIDTH 7 0
BBX 6 10 1 2
BITMAP
30
00
C0
80
80
4C
7C
78
4C
4C
ENDCHAR
STARTCHAR 0156
ENCODING 342
SWIDTH 630 0
DWIDTH 7 0
BBX 6 8 1 -3
BITMAP
C0
80
80
4C
4C
78
78
4C
ENDCHAR
STARTCHAR 0157
ENCODING 343
SWIDTH 630 0
DWIDTH 7 0
BBX 6 8 1 -3
BITMAP
C0
80
80
4C
7C
78
4C
4C
ENDCHAR
STARTCHAR 0158
ENCODING 344
SWIDTH 630 0
DWIDTH 7 0
BBX 6 12 1 0
BITMAP
78
78
40
00
C0
80
80
4C
4C
78
78
4C
ENDCHAR
STARTCHAR 0159
ENCODING 345
SWIDTH 630 0
DWIDTH 7 0
BBX 6 12 1 0
BITMAP
78
78
40
00
C0
80
80
4C
7C
78
4C
4C
ENDCHAR
STARTCHAR 015A
ENCODING 346
SWIDTH 630 0
DWIDTH 7 0
BBX 6 10 1 2
BITMAP
30
00
C0
80
80
78
7C
4C
7C
78
ENDCHAR
STARTCHAR 015B
ENCODING 347
SWIDTH 630 0
DWIDTH 7 0
BBX 6 10 1 2
BITMAP
30
00
C0
80
80
78
7C
4C
7C
78
ENDCHAR
STARTCHAR 015E
ENCODING 350
SWIDTH 630 0
DWIDTH 7 0
BBX 6 10 1 -2
BITMAP
C0
80
80
78
7C
4C
7C
78
00
40
ENDCHAR
STARTCHAR 015F
ENCODING 351
SWIDTH 630 0
DWIDTH 7 0
BBX 6 10 1 -2
BITMAP
C0
80
80
78
7C
4C
7C
78
00
40
ENDCHAR
STARTCHAR 0160
ENCODING 352
SWIDTH 630 0
DWIDTH 7 0
BBX 6 12 1 0
BITMAP
78
78
40
00
C0
80
80
78
7C
4C
7C
78
ENDCHAR
STARTCHAR 0161
ENCODING 353
SWIDTH 630 0
DWIDTH 7 0
BBX 6 12 1 0
BITMAP
78
78
40
00
C0
80
80
78
7C
4C
7C
78
ENDCHAR
STARTCHAR 0162
ENCODING 354
SWIDTH 630 0
DWIDTH 7 0
BBX 4 10 1 -2
BITMAP
C0
00
00
30
30
30
30
30
00
40
ENDCHAR
STARTCHAR 0163
ENCODING 355
SWIDTH 630 0
DWIDTH 7 0
BBX 4 10 1 -2
BITMAP
C0
00
00
30
30
30
30
30
00
40
ENDCHAR
STARTCHAR 0164
ENCODING 356
SWIDTH 630 0
DWIDTH 7 0
BBX 5 12 1 0
BITMAP
78
78
40
00
C0
00
00
30
30
30
30
30
ENDCHAR
STARTCHAR 0165
ENCODING 357
SWIDTH 630 0
DWIDTH 7 0
BBX 5 12 1 0
BITMAP
78
78
40
00
C0
00
00
30
30
30
30
30
ENDCHAR
STARTCHAR 0166
ENCODING 358
SWIDTH 630 0
DWIDTH 7 0
BBX 5 8 1 0
BITMAP
C0
00
00
78
78
30
30
30
ENDCHAR
STARTCHAR 0167
ENCODING 359
SWIDTH 630 0
DWIDTH 7 0
BBX 5 8 1 0
BITMAP
C0
00
00
78
78
30
30
30
ENDCHAR
STARTCHAR 0168
ENCODING 360
SWIDTH 720 0
DWIDTH 8 0
BBX 7 12 1 0
BITMAP
42
C2
5C
00
82
82
82
46
46
46
7C
38
ENDCHAR
STARTCHAR 0169
ENCODING 361
SWIDTH 630 0
DWIDTH 7 0
BBX 6 12 1 0
BITMAP
6C
7C
80
00
80
80
80
4C
4C
4C
7C
78
ENDCHAR
STARTCHAR 016A
ENCODING 362
SWIDTH 720 0
DWIDTH 8 0
BBX 7 11 1 0
BITMAP
40
38
00
82
82
82
46
46
46
7C
38
ENDCHAR
STARTCHAR 016B
ENCODING 363
SWIDTH 630 0
DWIDTH 7 0
BBX 6 11 1 0
BITMAP
78
40
00
80
80
80
4C
4C
4C
7C
78
ENDCHAR
STARTCHAR 016E
ENCODING 366
SWIDTH 720 0
DWIDTH 8 0
BBX 7 14 1 0
BITMAP
38
7C
6C
7C
40
00
82
82
82
46
46
46
7C
38
ENDCHAR
STARTCHAR 016F
ENCODING 367
SWIDTH 630 0
DWIDTH 7 0
BBX 6 14 1 0
BITMAP
40
C0
C0
C0
78
00
80
80
80
4C
4C
4C
7C
78
ENDCHAR
STARTCHAR 0170
ENCODING 368
SWIDTH 720 0
DWIDTH 8 0
BBX 8 12 1 0
BITMAP
03
42
6C
00
82
82
82
46
46
46
7C
38
ENDCHAR
STARTCHAR 0171
ENCODING 369
SWIDTH 630 0
DWIDTH 7 0
BBX 7 12 1 0
BITMAP
36
6C
C0
00
80
80
80
4C
4C
4C
7C
78
ENDCHAR
STARTCHAR 0172
ENCODING 370
SWIDTH 720 0
DWIDTH 8 0
BBX 7 8 1 -2
BITMAP
82
82
82
46
46
46
7C
38
ENDCHAR
STARTCHAR 0173
ENCODING 371
SWIDTH 630 0
DWIDTH 7 0
BBX 6 8 1 -2
BITMAP
80
80
80
4C
4C
4C
7C
78
ENDCHAR
STARTCHAR 0174
ENCODING 372
SWIDTH 1080 0
DWIDTH 12 0
BBX 10 12 1 0
BITMAP
0C00
1E00
0200
0000
8040
8040
8040
4C00
4C00
4C00
7E00
3200
ENDCHAR
STARTCHAR 0175
ENCODING 373
SWIDTH 1080 0
DWIDTH 12 0
BBX 10 12 1 0
BITMAP
0C00
1E00
0200
0000
8040
8040
8040
4C00
4C00
4C00
7E00
7200
ENDCHAR
STARTCHAR 0176
ENCODING 374
SWIDTH 630 0
DWIDTH 7 0
BBX 6 12 1 0
BITMAP
30
78
40
00
80
80
80
4C
78
30
30
30
ENDCHAR
STARTCHAR 0177
ENCODING 375
SWIDTH 630 0
DWIDTH 7 0
BBX 6 12 1 0
BITMAP
30
78
40
00
80
80
80
4C
7C
78
30
30
ENDCHAR
STARTCHAR 0178
ENCODING 376
SWIDTH 630 0
DWIDTH 7 0
BBX 6 11 1 0
BITMAP
78
40
00
80
80
80
4C
78
30
30
30
ENDCHAR
STARTCHAR 0179
ENCODING 377
SWIDTH 630 0
DWIDTH 7 0
BBX 6 10 1 2
BITMAP
30
00
C0
00
00
30
60
40
7C
7C
ENDCHAR
STARTCHAR 017A
ENCODING 378
SWIDTH 630 0
DWIDTH 7 0
BBX 6 10 1 2
BITMAP
30
00
C0
00
00
7C
78
40
7C
7C
ENDCHAR
STARTCHAR 017B
ENCODING 379
SWIDTH 630 0
DWIDTH 7 0
BBX 6 11 1 0
BITMAP
30
00
00
C0
00
00
30
60
40
7C
7C
ENDCHAR
STARTCHAR 017C
ENCODING 380
SWIDTH 630 0
DWIDTH 7 0
BBX 6 11 1 0
BITMAP
30
00
00
C0
00
00
7C
78
40
7C
7C
ENDCHAR
STARTCHAR 017D
ENCODING 381
SWIDTH 630 0
DWIDTH 7 0
BBX 6 12 1 0
BITMAP
78
78
40
00
C0
00
00
30
60
40
7C
7C
ENDCHAR
STARTCHAR 017E
ENCODING 382
SWIDTH 630 0
DWIDTH 7 0
BBX 6 12 1 0
BITMAP
78
78
40
00
C0
00
00
7C
78
40
7C
7C
ENDCHAR
STARTCHAR 0192
ENCODING 402
SWIDTH 630 0
DWIDTH 7 0
BBX 5 7 1 1
BITMAP
78
78
30
30
30
00
C0
ENDCHAR
STARTCHAR 01A0
ENCODING 416
SWIDTH 900 0
DWIDTH 10 0
BBX 9 9 1 0
BITMAP
0080
C380
8200
8200
4600
4600
4600
7E00
7C00
ENDCHAR
STARTCHAR 01A1
ENCODING 417
SWIDTH 810 0
DWIDTH 9 0
BBX 8 9 1 0
BITMAP
01
C3
80
80
4C
4C
4C
7C
78
ENDCHAR
STARTCHAR 01AF
ENCODING 431
SWIDTH 900 0
DWIDTH 10 0
BBX 9 9 1 0
BITMAP
0080
8380
8200
8200
4600
4600
4600
7C00
3800
ENDCHAR
STARTCHAR 01B0
ENCODING 432
SWIDTH 810 0
DWIDTH 9 0
BBX 8 9 1 0
BITMAP
01
83
80
80
4C
4C
4C
7C
78
ENDCHAR
STARTCHAR 01CD
ENCODING 461
SWIDTH 630 0
DWIDTH 7 0
BBX 6 12 1 0
BITMAP
78
78
40
00
40
C0
80
4C
7C
7C
4C
4C
ENDCHAR
STARTCHAR 01CE
ENCODING 462
SWIDTH 630 0
DWIDTH 7 0
BBX 6 12 1 0
BITMAP
78
78
40
00
C0
80
80
4C
7C
7C
4C
4C
ENDCHAR
STARTCHAR 01CF
ENCODING 463
SWIDTH 450 0
DWIDTH 5 0
BBX 4 12 1 0
BITMAP
70
70
C0
00
C0
40
40
60
60
60
70
70
ENDCHAR
STARTCHAR 01D0
ENCODING 464
SWIDTH 270 0
DWIDTH 3 0
BBX 4 12 0 0
BITMAP
30
30
E0
00
40
40
40
20
20
20
20
20
ENDCHAR
STARTCHAR 01D1
ENCODING 465
SWIDTH 720 0
DWIDTH 8 0
BBX 7 12 1 0
BITMAP
40
40
38
00
40
C2
82
46
46
46
7C
38
ENDCHAR
STARTCHAR 01D2
ENCODING 466
SWIDTH 630 0
DWIDTH 7 0
BBX 6 12 1 0
BITMAP
78
78
40
00
C0
80
80
4C
4C
4C
7C
78
ENDCHAR
STARTCHAR 01D3
ENCODING 467
SWIDTH 720 0
DWIDTH 8 0
BBX 7 12 1 0
BITMAP
40
40
38
00
82
82
82
46
46
46
7C
38
ENDCHAR
STARTCHAR 01D4
ENCODING 468
SWIDTH 630 0
DWIDTH 7 0
BBX 6 12 1 0
BITMAP
78
78
40
00
80
80
80
4C
4C
4C
7C
78
ENDCHAR
STARTCHAR 01D5
ENCODING 469
SWIDTH 720 0
DWIDTH 8 0
BBX 7 13 1 0
BITMAP
40
40
40
28
00
82
82
82
46
46
46
7C
38
ENDCHAR
STARTCHAR 01D6
ENCODING 470
SWIDTH 630 0
DWIDTH 7 0
BBX 6 13 1 0
BITMAP
78
78
78
40
00
80
80
80
4C
4C
4C
7C
78
ENDCHAR
STARTCHAR 01D7
ENCODING 471
SWIDTH 720 0
DWIDTH 8 0
BBX 7 14 1 0
BITMAP
0C
18
30
40
28
00
82
82
82
46
46
46
7C
38
ENDCHAR
STARTCHAR 01D8
ENCODING 472
SWIDTH 630 0
DWIDTH 7 0
BBX 6 12 1 2
BITMAP
40
78
40
00
80
80
80
4C
4C
4C
7C
78
ENDCHAR
STARTCHAR 01D9
ENCODING 473
SWIDTH 720 0
DWIDTH 8 0
BBX 7 14 1 0
BITMAP
40
40
00
40
28
00
82
82
82
46
46
46
7C
38
ENDCHAR
STARTCHAR 01DA
ENCODING 474
SWIDTH 630 0
DWIDTH 7 0
BBX 6 14 1 0
BITMAP
78
78
30
78
40
00
80
80
80
4C
4C
4C
7C
78
ENDCHAR
STARTCHAR 01DB
ENCODING 475
SWIDTH 720 0
DWIDTH 8 0
BBX 7 14 1 0
BITMAP
C0
40
00
40
28
00
82
82
82
46
46
46
7C
38
ENDCHAR
STARTCHAR 01DC
ENCODING 476
SWIDTH 630 0
DWIDTH 7 0
BBX 6 14 1 0
BITMAP
40
60
30
78
40
00
80
80
80
4C
4C
4C
7C
78
ENDCHAR
STARTCHAR 0218
ENCODING 536
SWIDTH 630 0
DWIDTH 7 0
BBX 6 8 1 -3
BITMAP
C0
80
80
78
7C
4C
7C
78
ENDCHAR
STARTCHAR 0219
ENCODING 537
SWIDTH 630 0
DWIDTH 7 0
BBX 6 8 1 -3
BITMAP
C0
80
80
78
7C
4C
7C
78
ENDCHAR
STARTCHAR 021A
ENCODING 538
SWIDTH 630 0
DWIDTH 7 0
BBX 4 8 1 -3
BITMAP
C0
00
00
30
30
30
30
30
ENDCHAR
STARTCHAR 021B
ENCODING 539
SWIDTH 630 0
DWIDTH 7 0
BBX 4 8 1 -3
BITMAP
C0
00
00
30
30
30
30
30
ENDCHAR
STARTCHAR 02BC
ENCODING 700
SWIDTH 180 0
DWIDTH 2 0
BBX 0 0 0 6
BITMAP
ENDCHAR
STARTCHAR 02C6
ENCODING 710
SWIDTH 360 0
DWIDTH 4 0
BBX 4 3 0 9
BITMAP
60
E0
10
ENDCHAR
STARTCHAR 02C7
ENCODING 711
SWIDTH 360 0
DWIDTH 4 0
BBX 4 3 0 9
BITMAP
E0
E0
30
ENDCHAR
STARTCHAR 02D8
ENCODING 728
SWIDTH 450 0
DWIDTH 5 0
BBX 5 3 0 9
BITMAP
C0
E0
38
ENDCHAR
STARTCHAR 02D9
ENCODING 729
SWIDTH 180 0
DWIDTH 2 0
BBX 2 1 0 9
BITMAP
C0
ENDCHAR
STARTCHAR 02DA
ENCODING 730
SWIDTH 450 0
DWIDTH 5 0
BBX 5 5 0 9
BITMAP
60
E0
C0
E0
38
ENDCHAR
STARTCHAR 02DB
ENCODING 731
SWIDTH 180 0
DWIDTH 2 0
BBX 2 2 1 -2
BITMAP
80
C0
ENDCHAR
STARTCHAR 02DC
ENCODING 732
SWIDTH 540 0
DWIDTH 6 0
BBX 6 3 0 9
BITMAP
60
E0
1C
ENDCHAR
STARTCHAR 02DD
ENCODING 733
SWIDTH 630 0
DWIDTH 7 0
BBX 7 3 1 9
BITMAP
42
C0
58
ENDCHAR
STARTCHAR 0300
ENCODING 768
SWIDTH 0 0
DWIDTH 0 0
BBX 4 3 -5 9
BITMAP
C0
60
30
ENDCHAR
STARTCHAR 0301
ENCODING 769
SWIDTH 0 0
DWIDTH 0 0
BBX 2 2 -3 10
BITMAP
80
C0
ENDCHAR
STARTCHAR 0302
ENCODING 770
SWIDTH 0 0
DWIDTH 0 0
BBX 4 3 -4 9
BITMAP
60
70
80
ENDCHAR
STARTCHAR 0303
ENCODING 771
SWIDTH 0 0
DWIDTH 0 0
BBX 6 3 -6 9
BITMAP
0C
1C
B0
ENDCHAR
STARTCHAR 0304
ENCODING 772
SWIDTH 0 0
DWIDTH 0 0
BBX 4 2 -4 9
BITMAP
70
C0
ENDCHAR
STARTCHAR 0306
ENCODING 774
SWIDTH 0 0
DWIDTH 0 0
BBX 5 3 -5 9
BITMAP
18
38
E0
ENDCHAR
STARTCHAR 0307
ENCODING 775
SWIDTH 0 0
DWIDTH 0 0
BBX 2 1 -2 9
BITMAP
C0
ENDCHAR
STARTCHAR 0308
ENCODING 776
SWIDTH 0 0
DWIDTH 0 0
BBX 4 2 -4 9
BITMAP
70
80
ENDCHAR
STARTCHAR 0309
ENCODING 777
SWIDTH 0 0
DWIDTH 0 0
BBX 3 4 -3 9
BITMAP
C0
E0
E0
80
ENDCHAR
STARTCHAR 030A
ENCODING 778
SWIDTH 0 0
DWIDTH 0 0
BBX 5 5 -5 9
BITMAP
30
38
18
38
E0
ENDCHAR
STARTCHAR 030B
ENCODING 779
SWIDTH 0 0
DWIDTH 0 0
BBX 5 3 -6 9
BITMAP
60
D0
18
ENDCHAR
STARTCHAR 030C
ENCODING 780
SWIDTH 0 0
DWIDTH 0 0
BBX 4 3 -4 9
BITMAP
70
70
C0
ENDCHAR
STARTCHAR 031B
ENCODING 795
SWIDTH 0 0
DWIDTH 0 0
BBX 2 1 -4 8
BITMAP
C0
ENDCHAR
STARTCHAR 0323
ENCODING 803
SWIDTH 0 0
DWIDTH 0 0
BBX 0 0 -2 -2
BITMAP
ENDCHAR
STARTCHAR 0326
ENCODING 806
SWIDTH 0 0
DWIDTH 0 0
BBX 0 0 -2 -3
BITMAP
ENDCHAR
STARTCHAR 0327
ENCODING 807
SWIDTH 0 0
DWIDTH 0 0
BBX 1 1 -3 -1
BITMAP
80
ENDCHAR
STARTCHAR 0328
ENCODING 808
SWIDTH 0 0
DWIDTH 0 0
BBX 0 0 -2 -2
BITMAP
ENDCHAR
STARTCHAR 0335
ENCODING 821
SWIDTH 0 0
DWIDTH 0 0
BBX 3 2 -5 3
BITMAP
E0
E0
ENDCHAR
STARTCHAR 0336
ENCODING 822
SWIDTH 0 0
DWIDTH 0 0
BBX 6 1 -8 6
BITMAP
FC
ENDCHAR
STARTCHAR 0337
ENCODING 823
SWIDTH 0 0
DWIDTH 0 0
BBX 3 2 -5 3
BITMAP
E0
E0
ENDCHAR
STARTCHAR 0338
ENCODING 824
SWIDTH 0 0
DWIDTH 0 0
BBX 2 7 -3 1
BITMAP
80
80
C0
C0
80
80
80
ENDCHAR
STARTCHAR 0401
ENCODING 1025
SWIDTH 630 0
DWIDTH 7 0
BBX 6 11 1 0
BITMAP
78
40
00
40
C0
80
78
78
40
7C
3C
ENDCHAR
STARTCHAR 0410
ENCODING 1040
SWIDTH 630 0
DWIDTH 7 0
BBX 6 8 1 0
BITMAP
40
C0
80
4C
7C
7C
4C
4C
ENDCHAR
STARTCHAR 0411
ENCODING 1041
SWIDTH 630 0
DWIDTH 7 0
BBX 6 8 1 0
BITMAP
C0
80
80
78
7C
4C
7C
78
ENDCHAR
STARTCHAR 0412
ENCODING 1042
SWIDTH 630 0
DWIDTH 7 0
BBX 6 8 1 0
BITMAP
C0
80
80
78
7C
4C
7C
78
ENDCHAR
STARTCHAR 0413
ENCODING 1043
SWIDTH 630 0
DWIDTH 7 0
BBX 2 8 1 0
BITMAP
C0
80
80
40
40
40
40
40
ENDCHAR
STARTCHAR 0414
ENCODING 1044
SWIDTH 720 0
DWIDTH 8 0
BBX 9 9 0 -1
BITMAP
3E00
2200
2200
6100
6100
6100
6100
E180
0100
ENDCHAR
STARTCHAR 0415
ENCODING 1045
SWIDTH 630 0
DWIDTH 7 0
BBX 6 8 1 0
BITMAP
40
C0
80
78
78
40
7C
3C
ENDCHAR
STARTCHAR 0416
ENCODING 1046
SWIDTH 1080 0
DWIDTH 12 0
BBX 10 8 1 0
BITMAP
8040
C0C0
4180
3E00
3E00
6C00
4C00
4C00
ENDCHAR
STARTCHAR 0417
ENCODING 1047
SWIDTH 720 0
DWIDTH 8 0
BBX 7 8 1 0
BITMAP
40
C2
02
3C
3C
46
7C
38
ENDCHAR
STARTCHAR 0418
ENCODING 1048
SWIDTH 720 0
DWIDTH 8 0
BBX 7 8 1 0
BITMAP
82
82
82
4E
5E
76
66
46
ENDCHAR
STARTCHAR 0419
ENCODING 1049
SWIDTH 720 0
DWIDTH 8 0
BBX 7 12 1 0
BITMAP
6C
7C
40
00
82
82
82
4E
5E
76
66
46
ENDCHAR
STARTCHAR 041A
ENCODING 1050
SWIDTH 630 0
DWIDTH 7 0
BBX 6 8 1 0
BITMAP
80
80
80
70
70
58
4C
4C
ENDCHAR
STARTCHAR 041B
ENCODING 1051
SWIDTH 720 0
DWIDTH 8 0
BBX 6 8 2 0
BITMAP
84
84
84
CC
CC
CC
CC
8C
ENDCHAR
STARTCHAR 041C
ENCODING 1052
SWIDTH 990 0
DWIDTH 11 0
BBX 9 8 1 0
BITMAP
C180
C380
8280
5C00
4800
4000
4000
4000
ENDCHAR
STARTCHAR 041D
ENCODING 1053
SWIDTH 720 0
DWIDTH 8 0
BBX 7 8 1 0
BITMAP
82
82
82
7E
7E
46
46
46
ENDCHAR
STARTCHAR 041E
ENCODING 1054
SWIDTH 720 0
DWIDTH 8 0
BBX 7 8 1 0
BITMAP
40
C2
82
46
46
46
7C
38
ENDCHAR
STARTCHAR 041F
ENCODING 1055
SWIDTH 720 0
DWIDTH 8 0
BBX 7 8 1 0
BITMAP
C2
82
82
46
46
46
46
46
ENDCHAR
STARTCHAR 0420
ENCODING 1056
SWIDTH 630 0
DWIDTH 7 0
BBX 6 8 1 0
BITMAP
C0
80
80
4C
4C
78
70
40
ENDCHAR
STARTCHAR 0421
ENCODING 1057
SWIDTH 720 0
DWIDTH 8 0
BBX 7 8 1 0
BITMAP
40
C2
82
46
40
46
7C
38
ENDCHAR
STARTCHAR 0422
ENCODING 1058
SWIDTH 630 0
DWIDTH 7 0
BBX 4 8 1 0
BITMAP
C0
00
00
30
30
30
30
30
ENDCHAR
STARTCHAR 0423
ENCODING 1059
SWIDTH 630 0
DWIDTH 7 0
BBX 6 8 1 0
BITMAP
80
80
C0
7C
3C
0C
7C
78
ENDCHAR
STARTCHAR 0424
ENCODING 1060
SWIDTH 900 0
DWIDTH 10 0
BBX 8 8 1 0
BITMAP
42
C3
81
5A
5A
5A
7E
3C
ENDCHAR
STARTCHAR 0425
ENCODING 1061
SWIDTH 720 0
DWIDTH 8 0
BBX 7 8 1 0
BITMAP
82
82
C2
7C
7C
46
46
46
ENDCHAR
STARTCHAR 0426
ENCODING 1062
SWIDTH 810 0
DWIDTH 9 0
BBX 8 9 1 -1
BITMAP
82
82
82
46
46
46
7E
7E
01
ENDCHAR
STARTCHAR 0427
ENCODING 1063
SWIDTH 630 0
DWIDTH 7 0
BBX 6 8 1 0
BITMAP
80
80
C0
7C
3C
0C
0C
0C
ENDCHAR
STARTCHAR 0428
ENCODING 1064
SWIDTH 1080 0
DWIDTH 12 0
BBX 10 8 1 0
BITMAP
8040
8040
8040
4C00
4C00
4C00
7E00
7E00
ENDCHAR
STARTCHAR 0429
ENCODING 1065
SWIDTH 1080 0
DWIDTH 12 0
BBX 12 9 1 -1
BITMAP
8040
8040
8040
4C00
4C00
4C00
7E00
7E10
0020
ENDCHAR
STARTCHAR 042A
ENCODING 1066
SWIDTH 720 0
DWIDTH 8 0
BBX 7 8 1 0
BITMAP
C0
40
40
7C
7E
66
7E
3C
ENDCHAR
STARTCHAR 042B
ENCODING 1067
SWIDTH 900 0
DWIDTH 10 0
BBX 9 8 1 0
BITMAP
8000
8000
8000
7980
7D80
4D80
7D80
7980
ENDCHAR
STARTCHAR 042C
ENCODING 1068
SWIDTH 630 0
DWIDTH 7 0
BBX 6 8 1 0
BITMAP
80
80
80
78
7C
4C
7C
78
ENDCHAR
STARTCHAR 042D
ENCODING 1069
SWIDTH 720 0
DWIDTH 8 0
BBX 7 8 1 0
BITMAP
40
C2
02
3E
3E
46
7C
38
ENDCHAR
STARTCHAR 042E
ENCODING 1070
SWIDTH 1080 0
DWIDTH 12 0
BBX 10 8 1 0
BITMAP
8380
80C0
8040
7800
7800
5800
4E00
4600
ENDCHAR
STARTCHAR 042F
ENCODING 1071
SWIDTH 630 0
DWIDTH 7 0
BBX 6 8 1 0
BITMAP
40
C0
80
4C
4C
7C
7C
4C
ENDCHAR
STARTCHAR 0430
ENCODING 1072
SWIDTH 630 0
DWIDTH 7 0
BBX 6 8 1 0
BITMAP
C0
80
80
4C
7C
7C
4C
4C
ENDCHAR
STARTCHAR 0431
ENCODING 1073
SWIDTH 630 0
DWIDTH 7 0
BBX 6 8 1 0
BITMAP
C0
80
80
78
7C
4C
7C
78
ENDCHAR
STARTCHAR 0432
ENCODING 1074
SWIDTH 630 0
DWIDTH 7 0
BBX 6 8 1 0
BITMAP
C0
80
80
78
78
4C
7C
78
ENDCHAR
STARTCHAR 0433
ENCODING 1075
SWIDTH 540 0
DWIDTH 6 0
BBX 2 8 1 0
BITMAP
C0
80
80
40
40
40
40
40
ENDCHAR
STARTCHAR 0434
ENCODING 1076
SWIDTH 720 0
DWIDTH 8 0
BBX 9 9 0 -1
BITMAP
3E00
2200
2200
6100
6100
6100
6100
E180
0100
ENDCHAR
STARTCHAR 0435
ENCODING 1077
SWIDTH 630 0
DWIDTH 7 0
BBX 6 8 1 0
BITMAP
C0
80
80
78
78
40
7C
7C
ENDCHAR
STARTCHAR 0436
ENCODING 1078
SWIDTH 1080 0
DWIDTH 12 0
BBX 10 8 1 0
BITMAP
8040
8040
C0C0
7E00
7E00
4C00
4C00
4C00
ENDCHAR
STARTCHAR 0437
ENCODING 1079
SWIDTH 630 0
DWIDTH 7 0
BBX 6 8 1 0
BITMAP
C0
80
00
38
38
4C
7C
78
ENDCHAR
STARTCHAR 0438
ENCODING 1080
SWIDTH 630 0
DWIDTH 7 0
BBX 6 8 1 0
BITMAP
80
80
80
4C
5C
7C
6C
4C
ENDCHAR
STARTCHAR 0439
ENCODING 1081
SWIDTH 630 0
DWIDTH 7 0
BBX 6 12 1 0
BITMAP
C0
C0
78
00
80
80
80
4C
5C
7C
6C
4C
ENDCHAR
STARTCHAR 043A
ENCODING 1082
SWIDTH 630 0
DWIDTH 7 0
BBX 6 8 1 0
BITMAP
80
80
80
78
78
4C
4C
4C
ENDCHAR
STARTCHAR 043B
ENCODING 1083
SWIDTH 720 0
DWIDTH 8 0
BBX 6 8 2 0
BITMAP
84
84
84
CC
CC
CC
CC
8C
ENDCHAR
STARTCHAR 043C
ENCODING 1084
SWIDTH 900 0
DWIDTH 10 0
BBX 8 8 1 0
BITMAP
C3
C3
81
5A
42
42
42
42
ENDCHAR
STARTCHAR 043D
ENCODING 1085
SWIDTH 630 0
DWIDTH 7 0
BBX 6 8 1 0
BITMAP
80
80
80
7C
7C
4C
4C
4C
ENDCHAR
STARTCHAR 043E
ENCODING 1086
SWIDTH 630 0
DWIDTH 7 0
BBX 6 8 1 0
BITMAP
C0
80
80
4C
4C
4C
7C
78
ENDCHAR
STARTCHAR 043F
ENCODING 1087
SWIDTH 630 0
DWIDTH 7 0
BBX 6 8 1 0
BITMAP
C0
80
80
4C
4C
4C
4C
4C
ENDCHAR
STARTCHAR 0440
ENCODING 1088
SWIDTH 630 0
DWIDTH 7 0
BBX 6 8 1 0
BITMAP
C0
80
80
4C
7C
78
40
40
ENDCHAR
STARTCHAR 0441
ENCODING 1089
SWIDTH 630 0
DWIDTH 7 0
BBX 6 8 1 0
BITMAP
C0
80
80
4C
40
4C
7C
78
ENDCHAR
STARTCHAR 0442
ENCODING 1090
SWIDTH 630 0
DWIDTH 7 0
BBX 4 8 1 0
BITMAP
C0
00
00
30
30
30
30
30
ENDCHAR
STARTCHAR 0443
ENCODING 1091
SWIDTH 630 0
DWIDTH 7 0
BBX 6 8 1 0
BITMAP
80
80
80
7C
7C
0C
7C
78
ENDCHAR
STARTCHAR 0444
ENCODING 1092
SWIDTH 900 0
DWIDTH 10 0
BBX 8 8 1 0
BITMAP
C3
81
81
5A
5A
5A
7E
7E
ENDCHAR
STARTCHAR 0445
ENCODING 1093
SWIDTH 630 0
DWIDTH 7 0
BBX 6 8 1 0
BITMAP
80
80
C0
78
78
4C
4C
4C
ENDCHAR
STARTCHAR 0446
ENCODING 1094
SWIDTH 720 0
DWIDTH 8 0
BBX 7 9 1 -1
BITMAP
80
80
80
4C
4C
4C
7C
7E
02
ENDCHAR
STARTCHAR 0447
ENCODING 1095
SWIDTH 630 0
DWIDTH 7 0
BBX 6 8 1 0
BITMAP
80
80
80
7C
7C
0C
0C
0C
ENDCHAR
STARTCHAR 0448
ENCODING 1096
SWIDTH 900 0
DWIDTH 10 0
BBX 8 8 1 0
BITMAP
81
81
81
5A
5A
5A
7E
7E
ENDCHAR
STARTCHAR 0449
ENCODING 1097
SWIDTH 900 0
DWIDTH 10 0
BBX 9 9 1 -1
BITMAP
8100
8100
8100
5A00
5A00
5A00
7E00
7E00
0080
ENDCHAR
STARTCHAR 044A
ENCODING 1098
SWIDTH 720 0
DWIDTH 8 0
BBX 7 8 1 0
BITMAP
C0
40
40
7C
7E
66
7E
3C
ENDCHAR
STARTCHAR 044B
ENCODING 1099
SWIDTH 900 0
DWIDTH 10 0
BBX 9 8 1 0
BITMAP
8000
8000
8000
7980
7D80
4D80
7D80
7980
ENDCHAR
STARTCHAR 044C
ENCODING 1100
SWIDTH 630 0
DWIDTH 7 0
BBX 6 8 1 0
BITMAP
80
80
80
78
7C
4C
7C
78
ENDCHAR
STARTCHAR 044D
ENCODING 1101
SWIDTH 720 0
DWIDTH 8 0
BBX 7 8 1 0
BITMAP
C2
82
02
3E
3E
46
7E
7C
ENDCHAR
STARTCHAR 044E
ENCODING 1102
SWIDTH 990 0
DWIDTH 11 0
BBX 9 8 1 0
BITMAP
8380
8080
8080
7800
7800
5800
5E00
4E00
ENDCHAR
STARTCHAR 044F
ENCODING 1103
SWIDTH 630 0
DWIDTH 7 0
BBX 6 8 1 0
BITMAP
C0
80
80
4C
7C
7C
4C
4C
ENDCHAR
STARTCHAR 0451
ENCODING 1105
SWIDTH 630 0
DWIDTH 7 0
BBX 6 11 1 0
BITMAP
78
40
00
C0
80
80
78
78
40
7C
7C
ENDCHAR
STARTCHAR 1E80
ENCODING 7808
SWIDTH 1080 0
DWIDTH 12 0
BBX 10 12 1 0
BITMAP
3000
1800
0000
0000
8040
8040
8040
4C00
4C00
4C00
7E00
3200
ENDCHAR
STARTCHAR 1E81
ENCODING 7809
SWIDTH 1080 0
DWIDTH 12 0
BBX 10 12 1 0
BITMAP
3000
1800
0000
0000
8040
8040
8040
4C00
4C00
4C00
7E00
7200
ENDCHAR
STARTCHAR 1E82
ENCODING 7810
SWIDTH 1080 0
DWIDTH 12 0
BBX 10 12 1 0
BITMAP
0300
0200
0C00
0000
8040
8040
8040
4C00
4C00
4C00
7E00
3200
ENDCHAR
STARTCHAR 1E83
ENCODING 7811
SWIDTH 1080 0
DWIDTH 12 0
BBX 10 12 1 0
BITMAP
0300
0200
0C00
0000
8040
8040
8040
4C00
4C00
4C00
7E00
7200
ENDCHAR
STARTCHAR 1E84
ENCODING 7812
SWIDTH 1080 0
DWIDTH 12 0
BBX 10 11 1 0
BITMAP
1E00
0200
0000
8040
8040
8040
4C00
4C00
4C00
7E00
3200
ENDCHAR
STARTCHAR 1E85
ENCODING 7813
SWIDTH 1080 0
DWIDTH 12 0
BBX 10 11 1 0
BITMAP
1E00
0200
0000
8040
8040
8040
4C00
4C00
4C00
7E00
7200
ENDCHAR
STARTCHAR 1E9E
ENCODING 7838
SWIDTH 630 0
DWIDTH 7 0
BBX 6 8 1 0
BITMAP
C0
80
80
78
7C
4C
7C
78
ENDCHAR
STARTCHAR 1EA0
ENCODING 7840
SWIDTH 630 0
DWIDTH 7 0
BBX 6 8 1 -2
BITMAP
40
C0
80
4C
7C
7C
4C
4C
ENDCHAR
STARTCHAR 1EA1
ENCODING 7841
SWIDTH 630 0
DWIDTH 7 0
BBX 6 8 1 -2
BITMAP
C0
80
80
4C
7C
7C
4C
4C
ENDCHAR
STARTCHAR 1EA2
ENCODING 7842
SWIDTH 630 0
DWIDTH 7 0
BBX 6 13 1 0
BITMAP
70
78
38
00
00
40
C0
80
4C
7C
7C
4C
4C
ENDCHAR
STARTCHAR 1EA3
ENCODING 7843
SWIDTH 630 0
DWIDTH 7 0
BBX 6 13 1 0
BITMAP
70
78
38
00
00
C0
80
80
4C
7C
7C
4C
4C
ENDCHAR
STARTCHAR 1EA4
ENCODING 7844
SWIDTH 630 0
DWIDTH 7 0
BBX 6 13 1 2
BITMAP
40
30
78
40
00
40
C0
80
4C
7C
7C
4C
4C
ENDCHAR
STARTCHAR 1EA5
ENCODING 7845
SWIDTH 630 0
DWIDTH 7 0
BBX 6 13 1 2
BITMAP
40
30
78
40
00
C0
80
80
4C
7C
7C
4C
4C
ENDCHAR
STARTCHAR 1EA6
ENCODING 7846
SWIDTH 630 0
DWIDTH 7 0
BBX 6 15 1 0
BITMAP
40
60
30
30
78
40
00
40
C0
80
4C
7C
7C
4C
4C
ENDCHAR
STARTCHAR 1EA7
ENCODING 7847
SWIDTH 630 0
DWIDTH 7 0
BBX 6 15 1 0
BITMAP
40
60
30
30
78
40
00
C0
80
80
4C
7C
7C
4C
4C
ENDCHAR
STARTCHAR 1EA8
ENCODING 7848
SWIDTH 630 0
DWIDTH 7 0
BBX 6 16 1 0
BITMAP
40
78
38
30
30
78
40
00
40
C0
80
4C
7C
7C
4C
4C
ENDCHAR
STARTCHAR 1EA9
ENCODING 7849
SWIDTH 630 0
DWIDTH 7 0
BBX 6 16 1 0
BITMAP
40
78
38
30
30
78
40
00
C0
80
80
4C
7C
7C
4C
4C
ENDCHAR
STARTCHAR 1EAA
ENCODING 7850
SWIDTH 630 0
DWIDTH 7 0
BBX 6 15 1 0
BITMAP
6C
7C
58
30
78
40
00
40
C0
80
4C
7C
7C
4C
4C
ENDCHAR
STARTCHAR 1EAB
ENCODING 7851
SWIDTH 630 0
DWIDTH 7 0
BBX 6 15 1 0
BITMAP
6C
7C
58
30
78
40
00
C0
80
80
4C
7C
7C
4C
4C
ENDCHAR
STARTCHAR 1EAC
ENCODING 7852
SWIDTH 630 0
DWIDTH 7 0
BBX 6 12 1 -2
BITMAP
30
78
40
00
40
C0
80
4C
7C
7C
4C
4C
ENDCHAR
STARTCHAR 1EAD
ENCODING 7853
SWIDTH 630 0
DWIDTH 7 0
BBX 6 12 1 -2
BITMAP
30
78
40
00
C0
80
80
4C
7C
7C
4C
4C
ENDCHAR
STARTCHAR 1EAE
ENCODING 7854
SWIDTH 630 0
DWIDTH 7 0
BBX 6 13 1 2
BITMAP
40
C0
C0
78
00
40
C0
80
4C
7C
7C
4C
4C
ENDCHAR
STARTCHAR 1EAF
ENCODING 7855
SWIDTH 630 0
DWIDTH 7 0
BBX 6 13 1 2
BITMAP
40
C0
C0
78
00
C0
80
80
4C
7C
7C
4C
4C
ENDCHAR
STARTCHAR 1EB0
ENCODING 7856
SWIDTH 630 0
DWIDTH 7 0
BBX 6 14 1 1
BITMAP
20
30
C0
C0
78
00
40
C0
80
4C
7C
7C
4C
4C
ENDCHAR
STARTCHAR 1EB1
ENCODING 7857
SWIDTH 630 0
DWIDTH 7 0
BBX 6 14 1 1
BITMAP
20
30
C0
C0
78
00
C0
80
80
4C
7C
7C
4C
4C
ENDCHAR
STARTCHAR 1EB2
ENCODING 7858
SWIDTH 630 0
DWIDTH 7 0
BBX 6 16 1 0
BITMAP
40
78
38
30
C0
C0
78
00
40
C0
80
4C
7C
7C
4C
4C
ENDCHAR
STARTCHAR 1EB3
ENCODING 7859
SWIDTH 630 0
DWIDTH 7 0
BBX 6 16 1 0
BITMAP
40
78
38
30
C0
C0
78
00
C0
80
80
4C
7C
7C
4C
4C
ENDCHAR
STARTCHAR 1EB4
ENCODING 7860
SWIDTH 630 0
DWIDTH 7 0
BBX 6 15 1 0
BITMAP
6C
7C
58
C0
C0
78
00
40
C0
80
4C
7C
7C
4C
4C
ENDCHAR
STARTCHAR 1EB5
ENCODING 7861
SWIDTH 630 0
DWIDTH 7 0
BBX 6 15 1 0
BITMAP
6C
7C
58
C0
C0
78
00
C0
80
80
4C
7C
7C
4C
4C
ENDCHAR
STARTCHAR 1EB6
ENCODING 7862
SWIDTH 630 0
DWIDTH 7 0
BBX 6 12 1 -2
BITMAP
C0
C0
78
00
40
C0
80
4C
7C
7C
4C
4C
ENDCHAR
STARTCHAR 1EB7
ENCODING 7863
SWIDTH 630 0
DWIDTH 7 0
BBX 6 12 1 -2
BITMAP
C0
C0
78
00
C0
80
80
4C
7C
7C
4C
4C
ENDCHAR
STARTCHAR 1EB8
ENCODING 7864
SWIDTH 630 0
DWIDTH 7 0
BBX 6 8 1 -2
BITMAP
40
C0
80
78
78
40
7C
3C
ENDCHAR
STARTCHAR 1EB9
ENCODING 7865
SWIDTH 630 0
DWIDTH 7 0
BBX 6 8 1 -2
BITMAP
C0
80
80
78
78
40
7C
7C
ENDCHAR
STARTCHAR 1EBA
ENCODING 7866
SWIDTH 630 0
DWIDTH 7 0
BBX 6 13 1 0
BITMAP
70
78
38
00
00
40
C0
80
78
78
40
7C
3C
ENDCHAR
STARTCHAR 1EBB
ENCODING 7867
SWIDTH 630 0
DWIDTH 7 0
BBX 6 13 1 0
BITMAP
70
78
38
00
00
C0
80
80
78
78
40
7C
7C
ENDCHAR
STARTCHAR 1EBC
ENCODING 7868
SWIDTH 630 0
DWIDTH 7 0
BBX 6 12 1 0
BITMAP
6C
7C
80
00
40
C0
80
78
78
40
7C
3C
ENDCHAR
STARTCHAR 1EBD
ENCODING 7869
SWIDTH 630 0
DWIDTH 7 0
BBX 6 12 1 0
BITMAP
6C
7C
80
00
C0
80
80
78
78
40
7C
7C
ENDCHAR
STARTCHAR 1EBE
ENCODING 7870
SWIDTH 630 0
DWIDTH 7 0
BBX 6 13 1 2
BITMAP
40
30
78
40
00
40
C0
80
78
78
40
7C
3C
ENDCHAR
STARTCHAR 1EBF
ENCODING 7871
SWIDTH 630 0
DWIDTH 7 0
BBX 6 13 1 2
BITMAP
40
30
78
40
00
C0
80
80
78
78
40
7C
7C
ENDCHAR
STARTCHAR 1EC0
ENCODING 7872
SWIDTH 630 0
DWIDTH 7 0
BBX 6 15 1 0
BITMAP
40
60
30
30
78
40
00
40
C0
80
78
78
40
7C
3C
ENDCHAR
STARTCHAR 1EC1
ENCODING 7873
SWIDTH 630 0
DWIDTH 7 0
BBX 6 15 1 0
BITMAP
40
60
30
30
78
40
00
C0
80
80
78
78
40
7C
7C
ENDCHAR
STARTCHAR 1EC2
ENCODING 7874
SWIDTH 630 0
DWIDTH 7 0
BBX 6 16 1 0
BITMAP
40
78
38
30
30
78
40
00
40
C0
80
78
78
40
7C
3C
ENDCHAR
STARTCHAR 1EC3
ENCODING 7875
SWIDTH 630 0
DWIDTH 7 0
BBX 6 16 1 0
BITMAP
40
78
38
30
30
78
40
00
C0
80
80
78
78
40
7C
7C
ENDCHAR
STARTCHAR 1EC4
ENCODING 7876
SWIDTH 630 0
DWIDTH 7 0
BBX 6 15 1 0
BITMAP
6C
7C
58
30
78
40
00
40
C0
80
78
78
40
7C
3C
ENDCHAR
STARTCHAR 1EC5
ENCODING 7877
SWIDTH 630 0
DWIDTH 7 0
BBX 6 15 1 0
BITMAP
6C
7C
58
30
78
40
00
C0
80
80
78
78
40
7C
7C
ENDCHAR
STARTCHAR 1EC6
ENCODING 7878
SWIDTH 630 0
DWIDTH 7 0
BBX 6 12 1 -2
BITMAP
30
78
40
00
40
C0
80
78
78
40
7C
3C
ENDCHAR
STARTCHAR 1EC7
ENCODING 7879
SWIDTH 630 0
DWIDTH 7 0
BBX 6 12 1 -2
BITMAP
30
78
40
00
C0
80
80
78
78
40
7C
7C
ENDCHAR
STARTCHAR 1EC8
ENCODING 7880
SWIDTH 450 0
DWIDTH 5 0
BBX 4 13 1 0
BITMAP
60
70
70
40
00
C0
40
40
60
60
60
70
70
ENDCHAR
STARTCHAR 1EC9
ENCODING 7881
SWIDTH 270 0
DWIDTH 3 0
BBX 3 13 1 0
BITMAP
40
60
60
C0
00
80
80
80
40
40
40
40
40
ENDCHAR
STARTCHAR 1ECA
ENCODING 7882
SWIDTH 450 0
DWIDTH 5 0
BBX 4 10 1 -2
BITMAP
C0
40
40
60
60
60
70
70
00
40
ENDCHAR
STARTCHAR 1ECB
ENCODING 7883
SWIDTH 270 0
DWIDTH 3 0
BBX 2 10 1 -2
BITMAP
80
80
80
40
40
40
40
40
00
80
ENDCHAR
STARTCHAR 1ECC
ENCODING 7884
SWIDTH 720 0
DWIDTH 8 0
BBX 7 10 1 -2
BITMAP
40
C2
82
46
46
46
7C
38
00
10
ENDCHAR
STARTCHAR 1ECD
ENCODING 7885
SWIDTH 630 0
DWIDTH 7 0
BBX 6 8 1 -2
BITMAP
C0
80
80
4C
4C
4C
7C
78
ENDCHAR
STARTCHAR 1ECE
ENCODING 7886
SWIDTH 720 0
DWIDTH 8 0
BBX 7 13 1 0
BITMAP
40
40
00
18
00
40
C2
82
46
46
46
7C
38
ENDCHAR
STARTCHAR 1ECF
ENCODING 7887
SWIDTH 630 0
DWIDTH 7 0
BBX 6 13 1 0
BITMAP
70
78
38
00
00
C0
80
80
4C
4C
4C
7C
78
ENDCHAR
STARTCHAR 1ED0
ENCODING 7888
SWIDTH 720 0
DWIDTH 8 0
BBX 7 15 1 0
BITMAP
0C
18
30
00
40
28
00
40
C2
82
46
46
46
7C
38
ENDCHAR
STARTCHAR 1ED1
ENCODING 7889
SWIDTH 630 0
DWIDTH 7 0
BBX 6 13 1 2
BITMAP
40
30
78
40
00
C0
80
80
4C
4C
4C
7C
78
ENDCHAR
STARTCHAR 1ED2
ENCODING 7890
SWIDTH 720 0
DWIDTH 8 0
BBX 7 15 1 0
BITMAP
C0
40
00
00
40
28
00
40
C2
82
46
46
46
7C
38
ENDCHAR
STARTCHAR 1ED3
ENCODING 7891
SWIDTH 630 0
DWIDTH 7 0
BBX 6 15 1 0
BITMAP
40
60
30
30
78
40
00
C0
80
80
4C
4C
4C
7C
78
ENDCHAR
STARTCHAR 1ED4
ENCODING 7892
SWIDTH 720 0
DWIDTH 8 0
BBX 7 16 1 0
BITMAP
38
40
00
00
00
40
28
00
40
C2
82
46
46
46
7C
38
ENDCHAR
STARTCHAR 1ED5
ENCODING 7893
SWIDTH 630 0
DWIDTH 7 0
BBX 6 16 1 0
BITMAP
40
78
38
30
30
78
40
00
C0
80
80
4C
4C
4C
7C
78
ENDCHAR
STARTCHAR 1ED6
ENCODING 7894
SWIDTH 720 0
DWIDTH 8 0
BBX 7 15 1 0
BITMAP
42
C2
C0
00
40
28
00
40
C2
82
46
46
46
7C
38
ENDCHAR
STARTCHAR 1ED7
ENCODING 7895
SWIDTH 630 0
DWIDTH 7 0
BBX 6 15 1 0
BITMAP
6C
7C
58
30
78
40
00
C0
80
80
4C
4C
4C
7C
78
ENDCHAR
STARTCHAR 1ED8
ENCODING 7896
SWIDTH 720 0
DWIDTH 8 0
BBX 7 13 1 -1
BITMAP
40
28
00
40
C2
82
46
46
46
7C
38
00
10
ENDCHAR
STARTCHAR 1ED9
ENCODING 7897
SWIDTH 630 0
DWIDTH 7 0
BBX 6 12 1 -2
BITMAP
30
78
40
00
C0
80
80
4C
4C
4C
7C
78
ENDCHAR
STARTCHAR 1EDA
ENCODING 7898
SWIDTH 900 0
DWIDTH 10 0
BBX 9 12 1 0
BITMAP
0C00
1800
0000
0080
C380
8200
8200
4600
4600
4600
7E00
7C00
ENDCHAR
STARTCHAR 1EDB
ENCODING 7899
SWIDTH 810 0
DWIDTH 9 0
BBX 8 10 1 2
BITMAP
30
01
C3
80
80
4C
4C
4C
7C
78
ENDCHAR
STARTCHAR 1EDC
ENCODING 7900
SWIDTH 900 0
DWIDTH 10 0
BBX 9 12 1 0
BITMAP
C000
4000
3000
0080
C380
8200
8200
4600
4600
4600
7E00
7C00
ENDCHAR
STARTCHAR 1EDD
ENCODING 7901
SWIDTH 810 0
DWIDTH 9 0
BBX 8 12 1 0
BITMAP
40
60
40
01
C3
80
80
4C
4C
4C
7C
78
ENDCHAR
STARTCHAR 1EDE
ENCODING 7902
SWIDTH 900 0
DWIDTH 10 0
BBX 9 13 1 0
BITMAP
4000
4000
0000
1800
0080
C380
8200
8200
4600
4600
4600
7E00
7C00
ENDCHAR
STARTCHAR 1EDF
ENCODING 7903
SWIDTH 810 0
DWIDTH 9 0
BBX 8 13 1 0
BITMAP
70
78
38
00
01
C3
80
80
4C
4C
4C
7C
78
ENDCHAR
STARTCHAR 1EE0
ENCODING 7904
SWIDTH 900 0
DWIDTH 10 0
BBX 9 12 1 0
BITMAP
4200
C200
5C00
0080
C380
8200
8200
4600
4600
4600
7E00
7C00
ENDCHAR
STARTCHAR 1EE1
ENCODING 7905
SWIDTH 810 0
DWIDTH 9 0
BBX 8 12 1 0
BITMAP
6C
7C
80
01
C3
80
80
4C
4C
4C
7C
78
ENDCHAR
STARTCHAR 1EE2
ENCODING 7906
SWIDTH 900 0
DWIDTH 10 0
BBX 9 11 1 -2
BITMAP
0080
C380
8200
8200
4600
4600
4600
7E00
7C00
0000
1000
ENDCHAR
STARTCHAR 1EE3
ENCODING 7907
SWIDTH 810 0
DWIDTH 9 0
BBX 8 9 1 -2
BITMAP
01
C3
80
80
4C
4C
4C
7C
78
ENDCHAR
STARTCHAR 1EE4
ENCODING 7908
SWIDTH 720 0
DWIDTH 8 0
BBX 7 10 1 -2
BITMAP
82
82
82
46
46
46
7C
38
00
10
ENDCHAR
STARTCHAR 1EE5
ENCODING 7909
SWIDTH 630 0
DWIDTH 7 0
BBX 6 8 1 -2
BITMAP
80
80
80
4C
4C
4C
7C
78
ENDCHAR
STARTCHAR 1EE6
ENCODING 7910
SWIDTH 720 0
DWIDTH 8 0
BBX 7 13 1 0
BITMAP
40
40
00
18
00
82
82
82
46
46
46
7C
38
ENDCHAR
STARTCHAR 1EE7
ENCODING 7911
SWIDTH 630 0
DWIDTH 7 0
BBX 6 13 1 0
BITMAP
70
78
38
00
00
80
80
80
4C
4C
4C
7C
78
ENDCHAR
STARTCHAR 1EE8
ENCODING 7912
SWIDTH 900 0
DWIDTH 10 0
BBX 9 12 1 0
BITMAP
0C00
1800
0000
0080
8380
8200
8200
4600
4600
4600
7C00
3800
ENDCHAR
STARTCHAR 1EE9
ENCODING 7913
SWIDTH 810 0
DWIDTH 9 0
BBX 8 10 1 2
BITMAP
30
01
83
80
80
4C
4C
4C
7C
78
ENDCHAR
STARTCHAR 1EEA
ENCODING 7914
SWIDTH 900 0
DWIDTH 10 0
BBX 9 12 1 0
BITMAP
C000
4000
3000
0080
8380
8200
8200
4600
4600
4600
7C00
3800
ENDCHAR
STARTCHAR 1EEB
ENCODING 7915
SWIDTH 810 0
DWIDTH 9 0
BBX 8 12 1 0
BITMAP
40
60
40
01
83
80
80
4C
4C
4C
7C
78
ENDCHAR
STARTCHAR 1EEC
ENCODING 7916
SWIDTH 900 0
DWIDTH 10 0
BBX 9 13 1 0
BITMAP
4000
4000
0000
1800
0080
8380
8200
8200
4600
4600
4600
7C00
3800
ENDCHAR
STARTCHAR 1EED
ENCODING 7917
SWIDTH 810 0
DWIDTH 9 0
BBX 8 13 1 0
BITMAP
70
78
38
00
01
83
80
80
4C
4C
4C
7C
78
ENDCHAR
STARTCHAR 1EEE
ENCODING 7918
SWIDTH 900 0
DWIDTH 10 0
BBX 9 12 1 0
BITMAP
4200
C200
5C00
0080
8380
8200
8200
4600
4600
4600
7C00
3800
ENDCHAR
STARTCHAR 1EEF
ENCODING 7919
SWIDTH 810 0
DWIDTH 9 0
BBX 8 12 1 0
BITMAP
6C
7C
80
01
83
80
80
4C
4C
4C
7C
78
ENDCHAR
STARTCHAR 1EF0
ENCODING 7920
SWIDTH 900 0
DWIDTH 10 0
BBX 9 11 1 -2
BITMAP
0080
8380
8200
8200
4600
4600
4600
7C00
3800
0000
1000
ENDCHAR
STARTCHAR 1EF1
ENCODING 7921
SWIDTH 810 0
DWIDTH 9 0
BBX 8 9 1 -2
BITMAP
01
83
80
80
4C
4C
4C
7C
78
ENDCHAR
STARTCHAR 1EF2
ENCODING 7922
SWIDTH 630 0
DWIDTH 7 0
BBX 6 12 1 0
BITMAP
40
60
40
00
80
80
80
4C
78
30
30
30
ENDCHAR
STARTCHAR 1EF3
ENCODING 7923
SWIDTH 630 0
DWIDTH 7 0
BBX 6 12 1 0
BITMAP
40
60
40
00
80
80
80
4C
7C
78
30
30
ENDCHAR
STARTCHAR 1EF4
ENCODING 7924
SWIDTH 630 0
DWIDTH 7 0
BBX 6 8 1 -2
BITMAP
80
80
80
4C
78
30
30
30
ENDCHAR
STARTCHAR 1EF5
ENCODING 7925
SWIDTH 630 0
DWIDTH 7 0
BBX 6 8 1 -2
BITMAP
80
80
80
4C
7C
78
30
30
ENDCHAR
STARTCHAR 1EF6
ENCODING 7926
SWIDTH 630 0
DWIDTH 7 0
BBX 6 13 1 0
BITMAP
70
78
38
00
00
80
80
80
4C
78
30
30
30
ENDCHAR
STARTCHAR 1EF7
ENCODING 7927
SWIDTH 630 0
DWIDTH 7 0
BBX 6 13 1 0
BITMAP
70
78
38
00
00
80
80
80
4C
7C
78
30
30
ENDCHAR
STARTCHAR 1EF8
ENCODING 7928
SWIDTH 630 0
DWIDTH 7 0
BBX 6 12 1 0
BITMAP
6C
7C
80
00
80
80
80
4C
78
30
30
30
ENDCHAR
STARTCHAR 1EF9
ENCODING 7929
SWIDTH 630 0
DWIDTH 7 0
BBX 6 12 1 0
BITMAP
6C
7C
80
00
80
80
80
4C
7C
78
30
30
ENDCHAR
STARTCHAR 2013
ENCODING 8211
SWIDTH 630 0
DWIDTH 7 0
BBX 8 2 0 3
BITMAP
E1
E1
ENDCHAR
STARTCHAR 2014
ENCODING 8212
SWIDTH 990 0
DWIDTH 11 0
BBX 11 2 0 3
BITMAP
E1E0
E1E0
ENDCHAR
STARTCHAR 2018
ENCODING 8216
SWIDTH 180 0
DWIDTH 2 0
BBX 0 0 0 7
BITMAP
ENDCHAR
STARTCHAR 2019
ENCODING 8217
SWIDTH 180 0
DWIDTH 2 0
BBX 0 0 0 7
BITMAP
ENDCHAR
STARTCHAR 201A
ENCODING 8218
SWIDTH 180 0
DWIDTH 2 0
BBX 2 2 0 -1
BITMAP
C0
C0
ENDCHAR
STARTCHAR 201C
ENCODING 8220
SWIDTH 450 0
DWIDTH 5 0
BBX 0 0 0 7
BITMAP
ENDCHAR
STARTCHAR 201D
ENCODING 8221
SWIDTH 450 0
DWIDTH 5 0
BBX 0 0 0 7
BITMAP
ENDCHAR
STARTCHAR 201E
ENCODING 8222
SWIDTH 450 0
DWIDTH 5 0
BBX 5 2 0 -1
BITMAP
D8
D8
ENDCHAR
STARTCHAR 2020
ENCODING 8224
SWIDTH 450 0
DWIDTH 5 0
BBX 3 8 1 0
BITMAP
40
C0
40
60
60
60
60
60
ENDCHAR
STARTCHAR 2021
ENCODING 8225
SWIDTH 450 0
DWIDTH 5 0
BBX 4 8 1 0
BITMAP
40
C0
40
60
70
70
60
60
ENDCHAR
STARTCHAR 2022
ENCODING 8226
SWIDTH 360 0
DWIDTH 4 0
BBX 4 4 0 2
BITMAP
30
E0
E0
60
ENDCHAR
STARTCHAR 2026
ENCODING 8230
SWIDTH 540 0
DWIDTH 6 0
BBX 3 2 0 0
BITMAP
E0
E0
ENDCHAR
STARTCHAR 2030
ENCODING 8240
SWIDTH 1800 0
DWIDTH 20 0
BBX 17 8 1 0
BITMAP
C10000
830000
830000
7E1380
761F80
041E80
0C1F80
0C1380
ENDCHAR
STARTCHAR 2039
ENCODING 8249
SWIDTH 540 0
DWIDTH 6 0
BBX 4 6 1 1
BITMAP
40
C0
40
40
60
30
ENDCHAR
STARTCHAR 203A
ENCODING 8250
SWIDTH 540 0
DWIDTH 6 0
BBX 4 6 1 1
BITMAP
60
30
00
00
40
C0
ENDCHAR
STARTCHAR 2044
ENCODING 8260
SWIDTH 360 0
DWIDTH 4 0
BBX 4 8 0 0
BITMAP
10
30
30
60
60
40
C0
C0
ENDCHAR
STARTCHAR 20AC
ENCODING 8364
SWIDTH 720 0
DWIDTH 8 0
BBX 7 12 1 -1
BITMAP
1E
02
40
40
C0
40
60
7C
7C
60
3E
02
ENDCHAR
STARTCHAR 2212
ENCODING 8722
SWIDTH 630 0
DWIDTH 7 0
BBX 5 2 2 3
BITMAP
F8
F8
ENDCHAR
STARTCHAR E000
ENCODING 57344
SWIDTH 630 0
DWIDTH 7 0
BBX 6 8 1 0
BITMAP
C0
80
80
4C
7C
7C
4C
4C
ENDCHAR
STARTCHAR E017
ENCODING 57367
SWIDTH 1080 0
DWIDTH 12 0
BBX 10 8 1 0
BITMAP
C3C0
8000
8000
4E00
7E00
7C00
4E00
4E00
ENDCHAR
STARTCHAR E018
ENCODING 57368
SWIDTH 630 0
DWIDTH 7 0
BBX 6 8 1 0
BITMAP
C0
80
80
78
78
4C
7C
7C
ENDCHAR
STARTCHAR E019
ENCODING 57369
SWIDTH 720 0
DWIDTH 8 0
BBX 7 8 1 0
BITMAP
C2
82
82
46
40
46
7E
7E
ENDCHAR
STARTCHAR E01E
ENCODING 57374
SWIDTH 720 0
DWIDTH 8 0
BBX 7 8 1 0
BITMAP
C2
82
82
46
46
46
7E
7C
ENDCHAR
STARTCHAR E01F
ENCODING 57375
SWIDTH 810 0
DWIDTH 9 0
BBX 9 8 0 0
BITMAP
3F00
2100
2100
E180
E180
6180
6180
6100
ENDCHAR
STARTCHAR E021
ENCODING 57377
SWIDTH 810 0
DWIDTH 9 0
BBX 9 8 0 0
BITMAP
3F00
2100
2100
E180
E180
6180
6180
6100
ENDCHAR
STARTCHAR E022
ENCODING 57378
SWIDTH 630 0
DWIDTH 7 0
BBX 6 8 1 0
BITMAP
C0
80
80
78
78
40
7C
7C
ENDCHAR
STARTCHAR E033
ENCODING 57395
SWIDTH 630 0
DWIDTH 7 0
BBX 5 8 1 0
BITMAP
C0
80
80
78
78
40
40
40
ENDCHAR
STARTCHAR E034
ENCODING 57396
SWIDTH 720 0
DWIDTH 8 0
BBX 7 8 1 0
BITMAP
C2
80
80
5E
5E
46
7E
7E
ENDCHAR
STARTCHAR E038
ENCODING 57400
SWIDTH 540 0
DWIDTH 6 0
BBX 5 8 1 0
BITMAP
C0
00
00
18
58
58
78
70
ENDCHAR
STARTCHAR E039
ENCODING 57401
SWIDTH 630 0
DWIDTH 7 0
BBX 6 8 1 0
BITMAP
80
80
80
7C
7C
4C
4C
4C
ENDCHAR
STARTCHAR E03B
ENCODING 57403
SWIDTH 630 0
DWIDTH 7 0
BBX 6 8 1 0
BITMAP
80
80
80
40
40
40
7C
7C
ENDCHAR
STARTCHAR E040
ENCODING 57408
SWIDTH 1080 0
DWIDTH 12 0
BBX 10 8 1 0
BITMAP
C3C0
8040
8040
4C00
4C00
4C00
4C00
4C00
ENDCHAR
STARTCHAR E041
ENCODING 57409
SWIDTH 720 0
DWIDTH 8 0
BBX 7 8 1 0
BITMAP
C2
82
82
46
46
46
46
46
ENDCHAR
STARTCHAR E045
ENCODING 57413
SWIDTH 720 0
DWIDTH 8 0
BBX 7 10 1 -2
BITMAP
C2
82
82
46
46
46
46
46
02
02
ENDCHAR
STARTCHAR E047
ENCODING 57415
SWIDTH 720 0
DWIDTH 8 0
BBX 7 8 1 0
BITMAP
C2
82
82
46
46
46
7E
7E
ENDCHAR
STARTCHAR E054
ENCODING 57428
SWIDTH 900 0
DWIDTH 10 0
BBX 9 9 1 0
BITMAP
0080
C380
8200
8200
4600
4600
4600
7E00
7E00
ENDCHAR
STARTCHAR E05E
ENCODING 57438
SWIDTH 1170 0
DWIDTH 13 0
BBX 12 8 1 0
BITMAP
C3E0
8200
8200
4600
4600
4600
7E10
7E10
ENDCHAR
STARTCHAR E05F
ENCODING 57439
SWIDTH 630 0
DWIDTH 7 0
BBX 6 8 1 0
BITMAP
C0
80
80
4C
4C
7C
7C
40
ENDCHAR
STARTCHAR E060
ENCODING 57440
SWIDTH 630 0
DWIDTH 7 0
BBX 6 8 1 0
BITMAP
80
C0
80
4C
4C
7C
7C
40
ENDCHAR
STARTCHAR E061
ENCODING 57441
SWIDTH 720 0
DWIDTH 8 0
BBX 7 8 1 -1
BITMAP
C2
82
82
46
46
5E
7E
7E
ENDCHAR
STARTCHAR E062
ENCODING 57442
SWIDTH 630 0
DWIDTH 7 0
BBX 6 8 1 0
BITMAP
C0
80
80
4C
4C
7C
78
4C
ENDCHAR
STARTCHAR E066
ENCODING 57446
SWIDTH 630 0
DWIDTH 7 0
BBX 6 8 1 0
BITMAP
C0
80
80
78
7C
4C
7C
7C
ENDCHAR
STARTCHAR E06C
ENCODING 57452
SWIDTH 720 0
DWIDTH 8 0
BBX 7 8 1 0
BITMAP
82
82
82
46
46
46
7E
7E
ENDCHAR
STARTCHAR E078
ENCODING 57464
SWIDTH 900 0
DWIDTH 10 0
BBX 9 9 1 0
BITMAP
0080
8380
8200
8200
4600
4600
4600
7E00
7E00
ENDCHAR
STARTCHAR E083
ENCODING 57475
SWIDTH 1080 0
DWIDTH 12 0
BBX 10 8 1 0
BITMAP
8040
8040
8040
4C00
4C00
4C00
7E00
7E00
ENDCHAR
STARTCHAR E088
ENCODING 57480
SWIDTH 720 0
DWIDTH 8 0
BBX 7 8 1 0
BITMAP
82
82
C2
7C
7C
46
46
46
ENDCHAR
STARTCHAR E089
ENCODING 57481
SWIDTH 630 0
DWIDTH 7 0
BBX 6 8 1 0
BITMAP
80
80
80
4C
7C
7C
30
30
ENDCHAR
STARTCHAR E091
ENCODING 57489
SWIDTH 630 0
DWIDTH 7 0
BBX 6 8 1 0
BITMAP
C0
00
00
7C
7C
40
7C
7C
ENDCHAR
STARTCHAR E095
ENCODING 57493
SWIDTH 720 0
DWIDTH 8 0
BBX 7 8 1 0
BITMAP
C2
82
02
7E
7E
46
7E
7C
ENDCHAR
STARTCHAR E0AC
ENCODING 57516
SWIDTH 1260 0
DWIDTH 14 0
BBX 13 8 1 0
BITMAP
C3F0
8210
0210
7E18
7E18
4600
7E18
7E18
ENDCHAR
STARTCHAR E0AD
ENCODING 57517
SWIDTH 630 0
DWIDTH 7 0
BBX 6 8 1 0
BITMAP
40
C0
80
40
40
40
7C
3C
ENDCHAR
STARTCHAR E0B2
ENCODING 57522
SWIDTH 720 0
DWIDTH 8 0
BBX 7 8 1 0
BITMAP
40
C2
82
7E
7E
40
7E
3E
ENDCHAR
STARTCHAR E0C3
ENCODING 57539
SWIDTH 540 0
DWIDTH 6 0
BBX 4 5 2 3
BITMAP
30
30
30
E0
C0
ENDCHAR
STARTCHAR E0C4
ENCODING 57540
SWIDTH 1260 0
DWIDTH 14 0
BBX 13 8 1 0
BITMAP
41E0
C330
8210
4618
4618
4618
4618
4618
ENDCHAR
STARTCHAR E0C5
ENCODING 57541
SWIDTH 720 0
DWIDTH 8 0
BBX 7 8 1 0
BITMAP
40
C2
82
46
46
46
46
46
ENDCHAR
STARTCHAR E0C9
ENCODING 57545
SWIDTH 720 0
DWIDTH 8 0
BBX 7 10 1 -2
BITMAP
40
C2
82
46
46
46
46
46
02
02
ENDCHAR
STARTCHAR E0CB
ENCODING 57547
SWIDTH 1260 0
DWIDTH 14 0
BBX 13 8 1 0
BITMAP
41E0
C330
8210
4618
4618
4600
7E18
3818
ENDCHAR
STARTCHAR E0CC
ENCODING 57548
SWIDTH 540 0
DWIDTH 6 0
BBX 2 8 1 0
BITMAP
40
C0
80
40
40
40
40
40
ENDCHAR
STARTCHAR E0D0
ENCODING 57552
SWIDTH 630 0
DWIDTH 7 0
BBX 6 8 1 0
BITMAP
C0
80
80
78
7C
0C
7C
78
ENDCHAR
STARTCHAR E0D5
ENCODING 57557
SWIDTH 1260 0
DWIDTH 14 0
BBX 13 8 1 0
BITMAP
8210
8210
8210
4618
4618
4618
7E10
3800
ENDCHAR
STARTCHAR E0DA
ENCODING 57562
SWIDTH 630 0
DWIDTH 7 0
BBX 6 8 1 0
BITMAP
80
80
C0
7C
3C
0C
7C
78
ENDCHAR
STARTCHAR E0E2
ENCODING 57570
SWIDTH 630 0
DWIDTH 7 0
BBX 6 7 1 1
BITMAP
40
C0
4C
7C
7C
4C
4C
ENDCHAR
STARTCHAR E0FA
ENCODING 57594
SWIDTH 630 0
DWIDTH 7 0
BBX 6 8 1 0
BITMAP
C0
80
80
7C
7C
4C
78
70
ENDCHAR
STARTCHAR E0FB
ENCODING 57595
SWIDTH 630 0
DWIDTH 7 0
BBX 6 7 1 1
BITMAP
40
C0
40
40
40
7C
7C
ENDCHAR
STARTCHAR E100
ENCODING 57600
SWIDTH 720 0
DWIDTH 8 0
BBX 7 8 1 0
BITMAP
C0
80
82
46
46
46
7E
7E
ENDCHAR
STARTCHAR E101
ENCODING 57601
SWIDTH 810 0
DWIDTH 9 0
BBX 9 8 0 0
BITMAP
3C00
2600
2300
E180
E180
6180
6180
6180
ENDCHAR
STARTCHAR E103
ENCODING 57603
SWIDTH 810 0
DWIDTH 9 0
BBX 9 8 0 0
BITMAP
3C00
2600
2300
E180
E180
6180
6180
6180
ENDCHAR
STARTCHAR E104
ENCODING 57604
SWIDTH 630 0
DWIDTH 7 0
BBX 6 8 1 0
BITMAP
C0
80
80
78
78
40
7C
3C
ENDCHAR
STARTCHAR E115
ENCODING 57621
SWIDTH 720 0
DWIDTH 8 0
BBX 7 8 1 0
BITMAP
42
C0
80
5E
5E
46
7E
7E
ENDCHAR
STARTCHAR E119
ENCODING 57625
SWIDTH 630 0
DWIDTH 7 0
BBX 6 8 1 0
BITMAP
80
80
80
40
40
40
7C
3C
ENDCHAR
STARTCHAR E11E
ENCODING 57630
SWIDTH 1080 0
DWIDTH 12 0
BBX 10 8 1 0
BITMAP
C300
8180
80C0
4C00
4C00
4C00
4C00
4C00
ENDCHAR
STARTCHAR E11F
ENCODING 57631
SWIDTH 630 0
DWIDTH 7 0
BBX 6 8 1 0
BITMAP
C0
80
80
4C
4C
4C
4C
4C
ENDCHAR
STARTCHAR E123
ENCODING 57635
SWIDTH 630 0
DWIDTH 7 0
BBX 6 8 1 -2
BITMAP
C0
80
80
4C
4C
4C
4C
4C
ENDCHAR
STARTCHAR E125
ENCODING 57637
SWIDTH 720 0
DWIDTH 8 0
BBX 7 8 1 0
BITMAP
C0
82
82
46
46
46
7E
3E
ENDCHAR
STARTCHAR E136
ENCODING 57654
SWIDTH 630 0
DWIDTH 7 0
BBX 6 8 1 0
BITMAP
C0
80
80
4C
4C
78
70
40
ENDCHAR
STARTCHAR E137
ENCODING 57655
SWIDTH 630 0
DWIDTH 7 0
BBX 6 8 1 0
BITMAP
80
C0
80
4C
4C
78
70
40
ENDCHAR
STARTCHAR E138
ENCODING 57656
SWIDTH 720 0
DWIDTH 8 0
BBX 7 8 1 -1
BITMAP
C0
82
82
46
46
5E
7E
3E
ENDCHAR
STARTCHAR E139
ENCODING 57657
SWIDTH 630 0
DWIDTH 7 0
BBX 6 8 1 0
BITMAP
C0
80
80
4C
4C
78
78
4C
ENDCHAR
STARTCHAR E13D
ENCODING 57661
SWIDTH 630 0
DWIDTH 7 0
BBX 6 8 1 0
BITMAP
40
C0
80
7C
7C
0C
78
70
ENDCHAR
STARTCHAR E141
ENCODING 57665
SWIDTH 630 0
DWIDTH 7 0
BBX 6 8 1 0
BITMAP
80
80
80
4C
4C
58
70
60
ENDCHAR
STARTCHAR E142
ENCODING 57666
SWIDTH 1080 0
DWIDTH 12 0
BBX 10 8 1 0
BITMAP
8040
8040
8040
4C00
4C00
5C00
7E00
6E00
ENDCHAR
STARTCHAR E147
ENCODING 57671
SWIDTH 270 0
DWIDTH 3 0
BBX 2 11 1 0
BITMAP
40
80
00
80
80
80
40
40
40
40
40
ENDCHAR
STARTCHAR E148
ENCODING 57672
SWIDTH 630 0
DWIDTH 7 0
BBX 6 8 1 0
BITMAP
C0
00
00
7C
7C
4C
7C
7C
ENDCHAR
STARTCHAR E15F
ENCODING 57695
SWIDTH 1080 0
DWIDTH 12 0
BBX 10 8 1 0
BITMAP
C3C0
0040
0040
7E00
7E00
4C00
7E00
7E00
ENDCHAR
STARTCHAR E160
ENCODING 57696
SWIDTH 630 0
DWIDTH 7 0
BBX 6 8 1 0
BITMAP
C0
80
80
78
78
4C
7C
7C
ENDCHAR
STARTCHAR E161
ENCODING 57697
SWIDTH 630 0
DWIDTH 7 0
BBX 6 8 1 0
BITMAP
C0
80
80
4C
40
4C
7C
7C
ENDCHAR
STARTCHAR E166
ENCODING 57702
SWIDTH 630 0
DWIDTH 7 0
BBX 6 8 1 0
BITMAP
C0
80
80
7C
7C
40
7C
7C
ENDCHAR
STARTCHAR E177
ENCODING 57719
SWIDTH 630 0
DWIDTH 7 0
BBX 5 8 1 0
BITMAP
C0
80
80
78
78
40
40
40
ENDCHAR
STARTCHAR E178
ENCODING 57720
SWIDTH 630 0
DWIDTH 7 0
BBX 6 8 1 0
BITMAP
C0
80
80
5C
5C
4C
7C
7C
ENDCHAR
STARTCHAR E17C
ENCODING 57724
SWIDTH 450 0
DWIDTH 5 0
BBX 3 5 2 3
BITMAP
60
60
60
E0
E0
ENDCHAR
STARTCHAR E17D
ENCODING 57725
SWIDTH 630 0
DWIDTH 7 0
BBX 6 8 1 0
BITMAP
80
80
80
7C
7C
4C
4C
4C
ENDCHAR
STARTCHAR E17F
ENCODING 57727
SWIDTH 540 0
DWIDTH 6 0
BBX 5 8 1 0
BITMAP
80
80
80
40
40
40
78
78
ENDCHAR
STARTCHAR E184
ENCODING 57732
SWIDTH 900 0
DWIDTH 10 0
BBX 8 8 1 0
BITMAP
C3
81
81
5A
5A
5A
5A
5A
ENDCHAR
STARTCHAR E185
ENCODING 57733
SWIDTH 630 0
DWIDTH 7 0
BBX 6 8 1 0
BITMAP
C0
80
80
4C
4C
4C
4C
4C
ENDCHAR
STARTCHAR E189
ENCODING 57737
SWIDTH 630 0
DWIDTH 7 0
BBX 6 8 1 -2
BITMAP
C0
80
80
4C
4C
4C
4C
4C
ENDCHAR
STARTCHAR E18B
ENCODING 57739
SWIDTH 630 0
DWIDTH 7 0
BBX 6 8 1 0
BITMAP
C0
80
80
4C
4C
4C
7C
7C
ENDCHAR
STARTCHAR E198
ENCODING 57752
SWIDTH 810 0
DWIDTH 9 0
BBX 8 9 1 0
BITMAP
01
C3
80
80
4C
4C
4C
7C
7C
ENDCHAR
STARTCHAR E1A2
ENCODING 57762
SWIDTH 1080 0
DWIDTH 12 0
BBX 10 8 1 0
BITMAP
C3C0
8040
8040
4E00
4E00
4C00
7E00
7E00
ENDCHAR
STARTCHAR E1A3
ENCODING 57763
SWIDTH 630 0
DWIDTH 7 0
BBX 6 8 1 0
BITMAP
C0
80
80
4C
7C
7C
40
40
ENDCHAR
STARTCHAR E1A4
ENCODING 57764
SWIDTH 630 0
DWIDTH 7 0
BBX 6 8 1 0
BITMAP
80
C0
80
4C
4C
7C
7C
40
ENDCHAR
STARTCHAR E1A5
ENCODING 57765
SWIDTH 630 0
DWIDTH 7 0
BBX 6 8 1 -1
BITMAP
C0
80
80
4C
4C
7C
7C
7C
ENDCHAR
STARTCHAR E1A6
ENCODING 57766
SWIDTH 630 0
DWIDTH 7 0
BBX 6 8 1 0
BITMAP
C0
80
80
4C
7C
78
4C
4C
ENDCHAR
STARTCHAR E1AA
ENCODING 57770
SWIDTH 630 0
DWIDTH 7 0
BBX 6 8 1 0
BITMAP
C0
80
80
7C
7C
0C
7C
7C
ENDCHAR
STARTCHAR E1B0
ENCODING 57776
SWIDTH 630 0
DWIDTH 7 0
BBX 6 8 1 0
BITMAP
80
80
80
4C
4C
4C
7C
7C
ENDCHAR
STARTCHAR E1BC
ENCODING 57788
SWIDTH 810 0
DWIDTH 9 0
BBX 8 9 1 0
BITMAP
01
83
80
80
4C
4C
4C
7C
7C
ENDCHAR
STARTCHAR E1C7
ENCODING 57799
SWIDTH 900 0
DWIDTH 10 0
BBX 8 8 1 0
BITMAP
81
81
81
5A
5A
5A
7E
7E
ENDCHAR
STARTCHAR E1CC
ENCODING 57804
SWIDTH 630 0
DWIDTH 7 0
BBX 6 8 1 0
BITMAP
80
80
80
7C
7C
0C
7C
7C
ENDCHAR
STARTCHAR E1D4
ENCODING 57812
SWIDTH 630 0
DWIDTH 7 0
BBX 6 8 1 0
BITMAP
C0
00
00
7C
7C
40
7C
7C
ENDCHAR
STARTCHAR E1D8
ENCODING 57816
SWIDTH 630 0
DWIDTH 7 0
BBX 6 8 1 0
BITMAP
C0
00
00
7C
7C
4C
7C
78
ENDCHAR
STARTCHAR E1EF
ENCODING 57839
SWIDTH 1080 0
DWIDTH 12 0
BBX 10 8 1 0
BITMAP
C3C0
0040
0040
7E00
7E00
4C00
7E00
7E00
ENDCHAR
STARTCHAR E1F0
ENCODING 57840
SWIDTH 630 0
DWIDTH 7 0
BBX 6 8 1 0
BITMAP
C0
80
80
40
40
40
7C
7C
ENDCHAR
STARTCHAR E1F5
ENCODING 57845
SWIDTH 630 0
DWIDTH 7 0
BBX 6 8 1 0
BITMAP
C0
80
80
7C
7C
40
7C
7C
ENDCHAR
STARTCHAR E206
ENCODING 57862
SWIDTH 630 0
DWIDTH 7 0
BBX 4 8 1 0
BITMAP
C0
80
80
70
70
40
40
40
ENDCHAR
STARTCHAR E207
ENCODING 57863
SWIDTH 630 0
DWIDTH 7 0
BBX 6 8 1 0
BITMAP
C0
80
80
7C
7C
0C
7C
78
ENDCHAR
STARTCHAR E20B
ENCODING 57867
SWIDTH 540 0
DWIDTH 6 0
BBX 4 5 2 3
BITMAP
30
30
B0
F0
E0
ENDCHAR
STARTCHAR E20C
ENCODING 57868
SWIDTH 1080 0
DWIDTH 12 0
BBX 10 8 1 0
BITMAP
C3C0
8040
8040
4C00
4C00
4C00
4C00
4C00
ENDCHAR
STARTCHAR E20D
ENCODING 57869
SWIDTH 630 0
DWIDTH 7 0
BBX 6 8 1 0
BITMAP
C0
80
80
4C
4C
4C
4C
4C
ENDCHAR
STARTCHAR E211
ENCODING 57873
SWIDTH 630 0
DWIDTH 7 0
BBX 6 8 1 -2
BITMAP
C0
80
80
4C
4C
4C
4C
4C
ENDCHAR
STARTCHAR E213
ENCODING 57875
SWIDTH 1080 0
DWIDTH 12 0
BBX 10 8 1 0
BITMAP
C3C0
8040
8040
4E00
4E00
4C00
7E00
7E00
ENDCHAR
STARTCHAR E214
ENCODING 57876
SWIDTH 540 0
DWIDTH 6 0
BBX 2 8 1 0
BITMAP
C0
80
80
40
40
40
40
40
ENDCHAR
STARTCHAR E218
ENCODING 57880
SWIDTH 630 0
DWIDTH 7 0
BBX 6 8 1 0
BITMAP
C0
80
80
78
7C
0C
7C
78
ENDCHAR
STARTCHAR E21D
ENCODING 57885
SWIDTH 1080 0
DWIDTH 12 0
BBX 10 8 1 0
BITMAP
8040
8040
8040
4C00
4C00
4C00
7E00
7E00
ENDCHAR
STARTCHAR E222
ENCODING 57890
SWIDTH 630 0
DWIDTH 7 0
BBX 6 8 1 0
BITMAP
80
80
80
7C
7C
0C
7C
78
ENDCHAR
STARTCHAR E22A
ENCODING 57898
SWIDTH 630 0
DWIDTH 7 0
BBX 6 8 1 0
BITMAP
C0
80
80
4C
7C
7C
4C
4C
ENDCHAR
STARTCHAR E242
ENCODING 57922
SWIDTH 630 0
DWIDTH 7 0
BBX 6 8 1 0
BITMAP
C0
80
80
7C
7C
4C
78
70
ENDCHAR
STARTCHAR E243
ENCODING 57923
SWIDTH 630 0
DWIDTH 7 0
BBX 6 8 1 0
BITMAP
C0
80
80
40
40
60
3C
1C
ENDCHAR
STARTCHAR E248
ENCODING 57928
SWIDTH 720 0
DWIDTH 8 0
BBX 7 8 1 0
BITMAP
C2
82
82
46
46
4C
78
70
ENDCHAR
STARTCHAR E249
ENCODING 57929
SWIDTH 810 0
DWIDTH 9 0
BBX 9 8 0 0
BITMAP
3F00
2100
2100
E180
E180
6100
6000
6000
ENDCHAR
STARTCHAR E24B
ENCODING 57931
SWIDTH 810 0
DWIDTH 9 0
BBX 9 8 0 0
BITMAP
3F00
2100
2100
E180
E180
6100
6000
6000
ENDCHAR
STARTCHAR E24C
ENCODING 57932
SWIDTH 630 0
DWIDTH 7 0
BBX 6 8 1 0
BITMAP
40
C0
80
78
78
40
7C
7C
ENDCHAR
STARTCHAR E25D
ENCODING 57949
SWIDTH 720 0
DWIDTH 8 0
BBX 7 8 1 0
BITMAP
C2
80
80
5E
5E
46
7E
3E
ENDCHAR
STARTCHAR E261
ENCODING 57953
SWIDTH 540 0
DWIDTH 6 0
BBX 5 8 1 0
BITMAP
C0
00
00
18
18
58
70
60
ENDCHAR
STARTCHAR E262
ENCODING 57954
SWIDTH 540 0
DWIDTH 6 0
BBX 5 8 1 0
BITMAP
80
80
80
40
40
40
78
38
ENDCHAR
STARTCHAR E267
ENCODING 57959
SWIDTH 1080 0
DWIDTH 12 0
BBX 10 8 1 0
BITMAP
01C0
4340
C240
4C00
4C00
4C00
4C00
4C00
ENDCHAR
STARTCHAR E268
ENCODING 57960
SWIDTH 630 0
DWIDTH 7 0
BBX 6 7 1 1
BITMAP
40
C0
4C
4C
4C
4C
4C
ENDCHAR
STARTCHAR E26C
ENCODING 57964
SWIDTH 630 0
DWIDTH 7 0
BBX 6 7 1 -1
BITMAP
40
C0
4C
4C
4C
4C
4C
ENDCHAR
STARTCHAR E26E
ENCODING 57966
SWIDTH 720 0
DWIDTH 8 0
BBX 7 8 1 0
BITMAP
42
C2
82
46
46
46
7C
78
ENDCHAR
STARTCHAR E27F
ENCODING 57983
SWIDTH 630 0
DWIDTH 7 0
BBX 6 8 1 0
BITMAP
C0
80
80
4C
78
70
40
40
ENDCHAR
STARTCHAR E280
ENCODING 57984
SWIDTH 630 0
DWIDTH 7 0
BBX 6 8 1 0
BITMAP
80
C0
80
4C
4C
78
70
40
ENDCHAR
STARTCHAR E281
ENCODING 57985
SWIDTH 720 0
DWIDTH 8 0
BBX 7 8 1 -1
BITMAP
42
C2
82
46
46
76
7C
78
ENDCHAR
STARTCHAR E282
ENCODING 57986
SWIDTH 630 0
DWIDTH 7 0
BBX 6 8 1 0
BITMAP
C0
80
80
4C
78
78
4C
4C
ENDCHAR
STARTCHAR E286
ENCODING 57990
SWIDTH 630 0
DWIDTH 7 0
BBX 6 8 1 0
BITMAP
40
C0
80
7C
7C
0C
78
70
ENDCHAR
STARTCHAR E28A
ENCODING 57994
SWIDTH 630 0
DWIDTH 7 0
BBX 6 8 1 0
BITMAP
80
80
80
4C
4C
6C
3C
1C
ENDCHAR
STARTCHAR E28B
ENCODING 57995
SWIDTH 1080 0
DWIDTH 12 0
BBX 10 8 1 0
BITMAP
8040
8040
8040
4C00
4C00
6E00
3E00
1C00
ENDCHAR
STARTCHAR E290
ENCODING 58000
SWIDTH 630 0
DWIDTH 7 0
BBX 6 8 1 0
BITMAP
80
80
80
4C
7C
3C
0C
0C
ENDCHAR
STARTCHAR E298
ENCODING 58008
SWIDTH 630 0
DWIDTH 7 0
BBX 6 8 1 0
BITMAP
C0
00
00
30
60
40
7C
7C
ENDCHAR
STARTCHAR E29C
ENCODING 58012
SWIDTH 720 0
DWIDTH 8 0
BBX 7 8 1 0
BITMAP
C0
82
80
5E
5E
46
7C
78
ENDCHAR
STARTCHAR E29D
ENCODING 58013
SWIDTH 630 0
DWIDTH 7 0
BBX 6 8 1 0
BITMAP
C0
80
80
4C
7C
7C
4C
4C
ENDCHAR
STARTCHAR E29E
ENCODING 58014
SWIDTH 630 0
DWIDTH 7 0
BBX 6 8 1 0
BITMAP
C0
80
80
78
7C
4C
7C
78
ENDCHAR
STARTCHAR E29F
ENCODING 58015
SWIDTH 630 0
DWIDTH 7 0
BBX 6 8 1 0
BITMAP
C0
80
80
78
78
4C
7C
7C
ENDCHAR
STARTCHAR E2A0
ENCODING 58016
SWIDTH 630 0
DWIDTH 7 0
BBX 2 8 1 0
BITMAP
C0
80
80
40
40
40
40
40
ENDCHAR
STARTCHAR E2A2
ENCODING 58018
SWIDTH 630 0
DWIDTH 7 0
BBX 6 8 1 0
BITMAP
C0
80
80
78
78
40
7C
7C
ENDCHAR
STARTCHAR E2A4
ENCODING 58020
SWIDTH 1080 0
DWIDTH 12 0
BBX 10 8 1 0
BITMAP
8040
C0C0
4180
7E00
7E00
4C00
4C00
4C00
ENDCHAR
STARTCHAR E2A5
ENCODING 58021
SWIDTH 720 0
DWIDTH 8 0
BBX 7 8 1 0
BITMAP
C2
82
02
3C
3C
46
7E
7E
ENDCHAR
STARTCHAR E2A6
ENCODING 58022
SWIDTH 630 0
DWIDTH 7 0
BBX 6 8 1 0
BITMAP
80
80
80
7C
7C
4C
4C
4C
ENDCHAR
STARTCHAR E2A8
ENCODING 58024
SWIDTH 1080 0
DWIDTH 12 0
BBX 10 8 1 0
BITMAP
C3C0
8040
8040
4C00
4C00
4C00
4C00
4C00
ENDCHAR
STARTCHAR E2A9
ENCODING 58025
SWIDTH 720 0
DWIDTH 8 0
BBX 7 8 1 0
BITMAP
C2
82
82
46
46
46
7E
7E
ENDCHAR
STARTCHAR E2AA
ENCODING 58026
SWIDTH 720 0
DWIDTH 8 0
BBX 7 8 1 0
BITMAP
C2
82
82
46
46
46
46
46
ENDCHAR
STARTCHAR E2AB
ENCODING 58027
SWIDTH 630 0
DWIDTH 7 0
BBX 6 8 1 0
BITMAP
C0
80
80
4C
4C
7C
7C
40
ENDCHAR
STARTCHAR E2AC
ENCODING 58028
SWIDTH 720 0
DWIDTH 8 0
BBX 7 8 1 0
BITMAP
C2
82
82
46
40
46
7E
7E
ENDCHAR
STARTCHAR E2AD
ENCODING 58029
SWIDTH 630 0
DWIDTH 7 0
BBX 6 8 1 0
BITMAP
80
80
80
7C
7C
0C
7C
7C
ENDCHAR
STARTCHAR E2AE
ENCODING 58030
SWIDTH 900 0
DWIDTH 10 0
BBX 8 8 1 0
BITMAP
C3
81
81
5A
5A
5A
7E
7E
ENDCHAR
STARTCHAR E2AF
ENCODING 58031
SWIDTH 720 0
DWIDTH 8 0
BBX 7 8 1 0
BITMAP
82
82
C2
7C
7C
46
46
46
ENDCHAR
STARTCHAR E2B0
ENCODING 58032
SWIDTH 630 0
DWIDTH 7 0
BBX 6 8 1 0
BITMAP
80
80
80
7C
7C
0C
0C
0C
ENDCHAR
STARTCHAR E2B1
ENCODING 58033
SWIDTH 810 0
DWIDTH 9 0
BBX 8 9 1 -1
BITMAP
82
82
82
46
46
46
7E
7E
01
ENDCHAR
STARTCHAR E2B2
ENCODING 58034
SWIDTH 1080 0
DWIDTH 12 0
BBX 10 8 1 0
BITMAP
8040
8040
8040
4C00
4C00
4C00
7E00
7E00
ENDCHAR
STARTCHAR E2B3
ENCODING 58035
SWIDTH 1080 0
DWIDTH 12 0
BBX 12 9 1 -1
BITMAP
8040
8040
8040
4C00
4C00
4C00
7E00
7E10
0020
ENDCHAR
STARTCHAR E2B4
ENCODING 58036
SWIDTH 630 0
DWIDTH 7 0
BBX 6 8 1 0
BITMAP
80
80
80
7C
7C
4C
7C
7C
ENDCHAR
STARTCHAR E2B5
ENCODING 58037
SWIDTH 720 0
DWIDTH 8 0
BBX 7 8 1 0
BITMAP
C0
40
40
7E
7E
66
7E
7E
ENDCHAR
STARTCHAR E2B6
ENCODING 58038
SWIDTH 900 0
DWIDTH 10 0
BBX 9 8 1 0
BITMAP
8000
8000
8000
7D80
7D80
4D80
7D80
7D80
ENDCHAR
STARTCHAR E2B7
ENCODING 58039
SWIDTH 720 0
DWIDTH 8 0
BBX 7 8 1 0
BITMAP
C2
82
02
3E
3E
46
7E
7E
ENDCHAR
STARTCHAR E2B8
ENCODING 58040
SWIDTH 1080 0
DWIDTH 12 0
BBX 10 8 1 0
BITMAP
83C0
8040
8040
7800
7800
5800
5E00
5E00
ENDCHAR
STARTCHAR E2B9
ENCODING 58041
SWIDTH 630 0
DWIDTH 7 0
BBX 6 8 1 0
BITMAP
C0
80
80
4C
4C
7C
7C
4C
ENDCHAR
STARTCHAR E2BE
ENCODING 58046
SWIDTH 630 0
DWIDTH 7 0
BBX 6 7 1 1
BITMAP
40
C0
4C
7C
7C
4C
4C
ENDCHAR
STARTCHAR E2BF
ENCODING 58047
SWIDTH 630 0
DWIDTH 7 0
BBX 6 8 1 0
BITMAP
C0
80
80
7C
7C
4C
78
70
ENDCHAR
STARTCHAR E2C0
ENCODING 58048
SWIDTH 630 0
DWIDTH 7 0
BBX 6 8 1 0
BITMAP
C0
80
80
7C
7C
4C
78
70
ENDCHAR
STARTCHAR E2C1
ENCODING 58049
SWIDTH 630 0
DWIDTH 7 0
BBX 2 8 1 0
BITMAP
40
C0
80
40
40
40
40
40
ENDCHAR
STARTCHAR E2C2
ENCODING 58050
SWIDTH 630 0
DWIDTH 7 0
BBX 6 8 1 0
BITMAP
C0
80
80
78
78
40
7C
3C
ENDCHAR
STARTCHAR E2C5
ENCODING 58053
SWIDTH 720 0
DWIDTH 8 0
BBX 6 8 2 0
BITMAP
84
84
84
CC
CC
CC
CC
8C
ENDCHAR
STARTCHAR E2C6
ENCODING 58054
SWIDTH 1080 0
DWIDTH 12 0
BBX 10 8 1 0
BITMAP
C300
8180
80C0
4C00
4C00
4C00
4C00
4C00
ENDCHAR
STARTCHAR E2C7
ENCODING 58055
SWIDTH 720 0
DWIDTH 8 0
BBX 7 8 1 0
BITMAP
C0
82
82
46
46
46
7E
3E
ENDCHAR
STARTCHAR E2C8
ENCODING 58056
SWIDTH 630 0
DWIDTH 7 0
BBX 6 8 1 0
BITMAP
C0
80
80
4C
4C
78
70
40
ENDCHAR
STARTCHAR E2C9
ENCODING 58057
SWIDTH 630 0
DWIDTH 7 0
BBX 6 7 1 1
BITMAP
40
C0
40
40
40
7C
7C
ENDCHAR
STARTCHAR E2CA
ENCODING 58058
SWIDTH 900 0
DWIDTH 10 0
BBX 8 8 1 0
BITMAP
C2
83
81
5A
5A
5A
7E
3E
ENDCHAR
STARTCHAR E2CB
ENCODING 58059
SWIDTH 630 0
DWIDTH 7 0
BBX 6 8 1 0
BITMAP
80
80
80
7C
7C
4C
78
70
ENDCHAR
STARTCHAR E2CC
ENCODING 58060
SWIDTH 720 0
DWIDTH 8 0
BBX 7 8 1 0
BITMAP
C0
40
40
7E
7E
66
7C
78
ENDCHAR
STARTCHAR E2CD
ENCODING 58061
SWIDTH 900 0
DWIDTH 10 0
BBX 9 8 1 0
BITMAP
8000
8000
8000
7D80
7D80
4D80
7980
7180
ENDCHAR
STARTCHAR E2CF
ENCODING 58063
SWIDTH 1080 0
DWIDTH 12 0
BBX 10 8 1 0
BITMAP
8380
80C0
8040
7800
7800
5800
4E00
4600
ENDCHAR
STARTCHAR E2D0
ENCODING 58064
SWIDTH 630 0
DWIDTH 7 0
BBX 6 8 1 0
BITMAP
C0
80
80
4C
4C
7C
7C
4C
ENDCHAR
STARTCHAR E2D1
ENCODING 58065
SWIDTH 630 0
DWIDTH 7 0
BBX 6 8 1 0
BITMAP
C0
00
00
7C
7C
4C
7C
7C
ENDCHAR
STARTCHAR E2D2
ENCODING 58066
SWIDTH 630 0
DWIDTH 7 0
BBX 6 8 1 0
BITMAP
C0
80
80
78
7C
4C
7C
78
ENDCHAR
STARTCHAR E2D3
ENCODING 58067
SWIDTH 630 0
DWIDTH 7 0
BBX 6 8 1 0
BITMAP
C0
80
80
78
78
4C
7C
7C
ENDCHAR
STARTCHAR E2D4
ENCODING 58068
SWIDTH 540 0
DWIDTH 6 0
BBX 2 8 1 0
BITMAP
C0
80
80
40
40
40
40
40
ENDCHAR
STARTCHAR E2D6
ENCODING 58070
SWIDTH 630 0
DWIDTH 7 0
BBX 6 8 1 0
BITMAP
C0
80
80
7C
7C
40
7C
7C
ENDCHAR
STARTCHAR E2D8
ENCODING 58072
SWIDTH 1080 0
DWIDTH 12 0
BBX 10 8 1 0
BITMAP
8040
C0C0
4180
7E00
7E00
4C00
4C00
4C00
ENDCHAR
STARTCHAR E2D9
ENCODING 58073
SWIDTH 630 0
DWIDTH 7 0
BBX 6 8 1 0
BITMAP
C0
80
00
38
38
4C
7C
7C
ENDCHAR
STARTCHAR E2DA
ENCODING 58074
SWIDTH 630 0
DWIDTH 7 0
BBX 6 8 1 0
BITMAP
80
80
80
7C
7C
4C
4C
4C
ENDCHAR
STARTCHAR E2DC
ENCODING 58076
SWIDTH 900 0
DWIDTH 10 0
BBX 8 8 1 0
BITMAP
C3
81
81
5A
5A
5A
5A
5A
ENDCHAR
STARTCHAR E2DD
ENCODING 58077
SWIDTH 630 0
DWIDTH 7 0
BBX 6 8 1 0
BITMAP
C0
80
80
4C
4C
4C
7C
7C
ENDCHAR
STARTCHAR E2DE
ENCODING 58078
SWIDTH 630 0
DWIDTH 7 0
BBX 6 8 1 0
BITMAP
C0
80
80
4C
4C
4C
4C
4C
ENDCHAR
STARTCHAR E2DF
ENCODING 58079
SWIDTH 630 0
DWIDTH 7 0
BBX 6 8 1 0
BITMAP
C0
80
80
4C
7C
7C
40
40
ENDCHAR
STARTCHAR E2E0
ENCODING 58080
SWIDTH 630 0
DWIDTH 7 0
BBX 6 8 1 0
BITMAP
C0
80
80
4C
40
4C
7C
7C
ENDCHAR
STARTCHAR E2E1
ENCODING 58081
SWIDTH 630 0
DWIDTH 7 0
BBX 6 8 1 0
BITMAP
80
80
80
7C
7C
0C
7C
7C
ENDCHAR
STARTCHAR E2E2
ENCODING 58082
SWIDTH 900 0
DWIDTH 10 0
BBX 8 8 1 0
BITMAP
C3
81
81
5A
5A
5A
7E
7E
ENDCHAR
STARTCHAR E2E3
ENCODING 58083
SWIDTH 630 0
DWIDTH 7 0
BBX 6 8 1 0
BITMAP
80
80
80
7C
7C
0C
0C
0C
ENDCHAR
STARTCHAR E2E4
ENCODING 58084
SWIDTH 720 0
DWIDTH 8 0
BBX 7 9 1 -1
BITMAP
80
80
80
4C
4C
4C
7C
7E
02
ENDCHAR
STARTCHAR E2E5
ENCODING 58085
SWIDTH 900 0
DWIDTH 10 0
BBX 8 8 1 0
BITMAP
81
81
81
5A
5A
5A
7E
7E
ENDCHAR
STARTCHAR E2E6
ENCODING 58086
SWIDTH 900 0
DWIDTH 10 0
BBX 9 9 1 -1
BITMAP
8100
8100
8100
5A00
5A00
5A00
7E00
7E00
0080
ENDCHAR
STARTCHAR E2E7
ENCODING 58087
SWIDTH 630 0
DWIDTH 7 0
BBX 6 8 1 0
BITMAP
80
80
80
7C
7C
4C
7C
7C
ENDCHAR
STARTCHAR E2E8
ENCODING 58088
SWIDTH 720 0
DWIDTH 8 0
BBX 7 8 1 0
BITMAP
C0
40
40
7E
7E
66
7E
7E
ENDCHAR
STARTCHAR E2E9
ENCODING 58089
SWIDTH 900 0
DWIDTH 10 0
BBX 9 8 1 0
BITMAP
8000
8000
8000
7D80
7D80
4D80
7D80
7D80
ENDCHAR
STARTCHAR E2EA
ENCODING 58090
SWIDTH 720 0
DWIDTH 8 0
BBX 7 8 1 0
BITMAP
C2
82
02
3E
3E
46
7E
7E
ENDCHAR
STARTCHAR E2EB
ENCODING 58091
SWIDTH 990 0
DWIDTH 11 0
BBX 9 8 1 0
BITMAP
8380
8080
8080
7800
7800
5800
5E00
5E00
ENDCHAR
STARTCHAR E2EC
ENCODING 58092
SWIDTH 630 0
DWIDTH 7 0
BBX 6 8 1 0
BITMAP
C0
80
80
4C
7C
7C
4C
4C
ENDCHAR
STARTCHAR E2F1
ENCODING 58097
SWIDTH 630 0
DWIDTH 7 0
BBX 6 8 1 0
BITMAP
C0
80
80
4C
7C
7C
4C
4C
ENDCHAR
STARTCHAR E2F2
ENCODING 58098
SWIDTH 630 0
DWIDTH 7 0
BBX 6 8 1 0
BITMAP
C0
80
80
70
78
4C
7C
7C
ENDCHAR
STARTCHAR E2F3
ENCODING 58099
SWIDTH 630 0
DWIDTH 7 0
BBX 6 8 1 0
BITMAP
C0
80
80
7C
7C
4C
78
70
ENDCHAR
STARTCHAR E2F4
ENCODING 58100
SWIDTH 540 0
DWIDTH 6 0
BBX 2 8 1 0
BITMAP
40
C0
80
40
40
40
40
40
ENDCHAR
STARTCHAR E2F5
ENCODING 58101
SWIDTH 630 0
DWIDTH 7 0
BBX 6 8 1 0
BITMAP
40
C0
80
78
78
40
7C
7C
ENDCHAR
STARTCHAR E2F8
ENCODING 58104
SWIDTH 720 0
DWIDTH 8 0
BBX 6 8 2 0
BITMAP
84
84
84
CC
CC
CC
CC
8C
ENDCHAR
STARTCHAR E2F9
ENCODING 58105
SWIDTH 1080 0
DWIDTH 12 0
BBX 10 8 1 0
BITMAP
01C0
4340
C240
4C00
4C00
4C00
4C00
4C00
ENDCHAR
STARTCHAR E2FA
ENCODING 58106
SWIDTH 720 0
DWIDTH 8 0
BBX 7 8 1 0
BITMAP
42
C2
82
46
46
46
7C
78
ENDCHAR
STARTCHAR E2FB
ENCODING 58107
SWIDTH 630 0
DWIDTH 7 0
BBX 6 8 1 0
BITMAP
C0
80
80
4C
78
70
40
40
ENDCHAR
STARTCHAR E2FC
ENCODING 58108
SWIDTH 630 0
DWIDTH 7 0
BBX 6 8 1 0
BITMAP
C0
80
80
40
40
60
3C
1C
ENDCHAR
STARTCHAR E2FD
ENCODING 58109
SWIDTH 900 0
DWIDTH 10 0
BBX 8 8 1 0
BITMAP
43
C1
81
5A
5A
5A
7E
7C
ENDCHAR
STARTCHAR E2FE
ENCODING 58110
SWIDTH 630 0
DWIDTH 7 0
BBX 6 8 1 0
BITMAP
80
80
80
70
78
4C
7C
7C
ENDCHAR
STARTCHAR E2FF
ENCODING 58111
SWIDTH 720 0
DWIDTH 8 0
BBX 7 8 1 0
BITMAP
C0
40
40
78
7C
66
7E
7E
ENDCHAR
STARTCHAR E300
ENCODING 58112
SWIDTH 900 0
DWIDTH 10 0
BBX 9 8 1 0
BITMAP
8000
8000
8000
7180
7980
4D80
7D80
7D80
ENDCHAR
STARTCHAR E302
ENCODING 58114
SWIDTH 1080 0
DWIDTH 12 0
BBX 10 8 1 0
BITMAP
83C0
8040
8040
7800
7800
5800
5E00
5E00
ENDCHAR
STARTCHAR E303
ENCODING 58115
SWIDTH 630 0
DWIDTH 7 0
BBX 6 8 1 0
BITMAP
C0
80
80
4C
7C
7C
4C
4C
ENDCHAR
STARTCHAR E304
ENCODING 58116
SWIDTH 630 0
DWIDTH 7 0
BBX 6 8 1 0
BITMAP
C0
80
80
4C
4C
4C
7C
78
ENDCHAR
STARTCHAR E305
ENCODING 58117
SWIDTH 630 0
DWIDTH 7 0
BBX 6 8 1 0
BITMAP
C0
80
00
7C
78
40
7C
7C
ENDCHAR
STARTCHAR E306
ENCODING 58118
SWIDTH 630 0
DWIDTH 7 0
BBX 6 8 1 0
BITMAP
C0
80
00
3C
3C
4C
7C
7C
ENDCHAR
STARTCHAR E307
ENCODING 58119
SWIDTH 630 0
DWIDTH 7 0
BBX 6 8 1 0
BITMAP
80
80
80
4C
7C
7C
0C
0C
ENDCHAR
STARTCHAR E308
ENCODING 58120
SWIDTH 630 0
DWIDTH 7 0
BBX 6 8 1 0
BITMAP
C0
80
80
7C
7C
4C
7C
7C
ENDCHAR
STARTCHAR E309
ENCODING 58121
SWIDTH 630 0
DWIDTH 7 0
BBX 6 8 1 0
BITMAP
C0
00
00
7C
7C
0C
0C
0C
ENDCHAR
STARTCHAR E30A
ENCODING 58122
SWIDTH 630 0
DWIDTH 7 0
BBX 6 8 1 0
BITMAP
C0
80
80
7C
7C
4C
7C
7C
ENDCHAR
STARTCHAR E30B
ENCODING 58123
SWIDTH 630 0
DWIDTH 7 0
BBX 6 8 1 0
BITMAP
C0
80
80
7C
7C
0C
7C
7C
ENDCHAR
STARTCHAR E30C
ENCODING 58124
SWIDTH 630 0
DWIDTH 7 0
BBX 6 8 1 0
BITMAP
C0
80
00
7C
78
40
7C
7C
ENDCHAR
STARTCHAR E30D
ENCODING 58125
SWIDTH 630 0
DWIDTH 7 0
BBX 6 8 1 0
BITMAP
C0
80
00
3C
3C
4C
7C
78
ENDCHAR
STARTCHAR E30E
ENCODING 58126
SWIDTH 630 0
DWIDTH 7 0
BBX 6 8 1 0
BITMAP
40
C0
80
58
7C
7C
18
18
ENDCHAR
STARTCHAR E30F
ENCODING 58127
SWIDTH 630 0
DWIDTH 7 0
BBX 6 8 1 0
BITMAP
80
80
C0
7C
4C
4C
7C
78
ENDCHAR
STARTCHAR E310
ENCODING 58128
SWIDTH 630 0
DWIDTH 7 0
BBX 6 8 1 0
BITMAP
C0
00
00
3C
78
60
60
60
ENDCHAR
STARTCHAR E311
ENCODING 58129
SWIDTH 630 0
DWIDTH 7 0
BBX 6 8 1 0
BITMAP
C0
80
80
7C
7C
4C
7C
78
ENDCHAR
STARTCHAR E312
ENCODING 58130
SWIDTH 630 0
DWIDTH 7 0
BBX 6 8 1 0
BITMAP
C0
80
80
4C
7C
7C
0C
0C
ENDCHAR
STARTCHAR E313
ENCODING 58131
SWIDTH 630 0
DWIDTH 7 0
BBX 6 8 1 0
BITMAP
C0
80
80
4C
4C
4C
7C
7C
ENDCHAR
STARTCHAR E314
ENCODING 58132
SWIDTH 630 0
DWIDTH 7 0
BBX 6 8 1 0
BITMAP
C0
80
00
18
30
60
7C
7C
ENDCHAR
STARTCHAR E315
ENCODING 58133
SWIDTH 630 0
DWIDTH 7 0
BBX 6 8 1 0
BITMAP
C0
80
00
38
3C
4C
7C
7C
ENDCHAR
STARTCHAR E316
ENCODING 58134
SWIDTH 630 0
DWIDTH 7 0
BBX 6 8 1 0
BITMAP
40
C0
80
7C
7C
4C
7C
7C
ENDCHAR
STARTCHAR E317
ENCODING 58135
SWIDTH 630 0
DWIDTH 7 0
BBX 6 8 1 0
BITMAP
C0
80
C0
78
78
4C
7C
7C
ENDCHAR
STARTCHAR E318
ENCODING 58136
SWIDTH 630 0
DWIDTH 7 0
BBX 6 8 1 0
BITMAP
C0
80
80
7C
7C
0C
78
70
ENDCHAR
STARTCHAR E338
ENCODING 58168
SWIDTH 630 0
DWIDTH 7 0
BBX 6 8 1 0
BITMAP
C0
80
00
3C
3C
30
30
30
ENDCHAR
STARTCHAR E339
ENCODING 58169
SWIDTH 630 0
DWIDTH 7 0
BBX 5 5 2 3
BITMAP
E0
E0
98
F8
F8
ENDCHAR
STARTCHAR E33C
ENCODING 58172
SWIDTH 0 0
DWIDTH 0 0
BBX 5 3 -5 9
BITMAP
18
38
E0
ENDCHAR
STARTCHAR E33D
ENCODING 58173
SWIDTH 0 0
DWIDTH 0 0
BBX 5 6 -5 9
BITMAP
18
30
20
18
38
E0
ENDCHAR
STARTCHAR E33E
ENCODING 58174
SWIDTH 0 0
DWIDTH 0 0
BBX 6 6 -6 9
BITMAP
C0
60
30
0C
1C
70
ENDCHAR
STARTCHAR E33F
ENCODING 58175
SWIDTH 0 0
DWIDTH 0 0
BBX 5 7 -5 9
BITMAP
30
E0
60
60
18
38
E0
ENDCHAR
STARTCHAR E340
ENCODING 58176
SWIDTH 0 0
DWIDTH 0 0
BBX 6 6 -6 9
BITMAP
60
F0
D0
0C
1C
70
ENDCHAR
STARTCHAR E341
ENCODING 58177
SWIDTH 0 0
DWIDTH 0 0
BBX 4 5 -4 10
BITMAP
40
C0
60
70
80
ENDCHAR
STARTCHAR E342
ENCODING 58178
SWIDTH 0 0
DWIDTH 0 0
BBX 4 5 -4 10
BITMAP
40
60
60
70
80
ENDCHAR
STARTCHAR E343
ENCODING 58179
SWIDTH 0 0
DWIDTH 0 0
BBX 4 7 -4 9
BITMAP
C0
70
70
60
60
70
80
ENDCHAR
STARTCHAR E344
ENCODING 58180
SWIDTH 0 0
DWIDTH 0 0
BBX 5 6 -4 9
BITMAP
58
78
30
60
70
80
ENDCHAR
ENDFONT
